<?xml version="1.0" encoding="UTF-8"?>
<svg id="Layer_2" data-name="Layer 2" xmlns="http://www.w3.org/2000/svg" viewBox="0 0 96.65 94.14">
  <defs>
    <style>
      .cls-1 {
        fill: #fff;
      }
    </style>
  </defs>
  <g id="Layer_1-2" data-name="Layer 1">
    <g>
      <path class="cls-1" d="M45.34,1.3L1.09,48.97c-2.42,2.6-.57,6.84,2.98,6.84h88.49c3.55,0,5.4-4.23,2.98-6.84L51.31,1.3c-1.61-1.73-4.35-1.73-5.96,0Z"/>
      <path class="cls-1" d="M75,35.16H25.57c-7.24,0-12.59,4.9-11.95,10.95l3.93,37.07c.64,6.05,6.08,10.95,12.14,10.95h41.39c6.06,0,11.48-4.9,12.11-10.95l3.81-37.07c.62-6.05-4.75-10.95-11.99-10.95ZM57.14,85.24c-.24,2.12-2.15,3.84-4.28,3.84h-7.5c-2.13,0-3.85-1.72-3.85-3.84v-17.98c0-2.12,2.05-3.84,4.58-3.84h8.92c2.53,0,4.39,1.72,4.15,3.84l-2.01,17.98Z"/>
    </g>
  </g>
</svg>