<?xml version="1.0" encoding="UTF-8"?>
<svg id="Layer_2" data-name="Layer 2" xmlns="http://www.w3.org/2000/svg" xmlns:xlink="http://www.w3.org/1999/xlink" viewBox="0 0 1920 1080">
  <defs>
    <style>
      .cls-1 {
        fill: url(#linear-gradient-2);
      }

      .cls-2 {
        fill: url(#linear-gradient);
        stroke: #1b141c;
        stroke-width: 3px;
      }

      .cls-2, .cls-3, .cls-4, .cls-5, .cls-6, .cls-7, .cls-8 {
        stroke-miterlimit: 10;
      }

      .cls-9 {
        fill: #c794ff;
      }

      .cls-10 {
        fill: #fff9ff;
      }

      .cls-11, .cls-7 {
        fill: none;
      }

      .cls-12 {
        fill: url(#radial-gradient);
      }

      .cls-3 {
        fill: url(#linear-gradient-4);
      }

      .cls-3, .cls-5, .cls-6 {
        stroke: #00092d;
      }

      .cls-4 {
        fill: url(#linear-gradient-6);
      }

      .cls-4, .cls-7, .cls-8 {
        stroke: #1a1a1a;
        stroke-width: 2px;
      }

      .cls-5 {
        fill: url(#linear-gradient-3);
      }

      .cls-13 {
        fill: #f3ffb4;
      }

      .cls-6 {
        fill: url(#linear-gradient-5);
      }

      .cls-14 {
        fill: #e2e0ff;
      }

      .cls-15 {
        clip-path: url(#clippath);
      }

      .cls-8 {
        fill: #3f3d59;
      }
    </style>
    <symbol id="Circle" viewBox="0 0 2 2">
      <circle class="cls-14" cx="1" cy="1" r="1"/>
    </symbol>
    <symbol id="Circle_3" data-name="Circle 3" viewBox="0 0 5 5">
      <circle class="cls-9" cx="2.5" cy="2.5" r="2.5"/>
    </symbol>
    <symbol id="Circle2" viewBox="0 0 8 8">
      <circle class="cls-13" cx="4" cy="4" r="4"/>
    </symbol>
    <symbol id="Star" viewBox="0 0 3.4 3.4">
      <path class="cls-14" d="M3.4,1.7c-1.4.17-1.53.3-1.7,1.7-.17-1.4-.3-1.53-1.7-1.7,1.4-.17,1.53-.3,1.7-1.7.17,1.4.3,1.53,1.7,1.7Z"/>
    </symbol>
    <clipPath id="clippath">
      <rect class="cls-11" width="1920" height="1080"/>
    </clipPath>
    <radialGradient id="radial-gradient" cx="959" cy="540" fx="959" fy="540" r="1183.31" gradientTransform="translate(1)" gradientUnits="userSpaceOnUse">
      <stop offset="0" stop-color="#3d006a"/>
      <stop offset=".49" stop-color="#11003f"/>
      <stop offset=".98" stop-color="#000"/>
    </radialGradient>
    <linearGradient id="linear-gradient" x1="304.39" y1="262.78" x2="304.39" y2="69.17" gradientTransform="translate(66.31 -63.02) rotate(12.8)" gradientUnits="userSpaceOnUse">
      <stop offset="0" stop-color="#00066a"/>
      <stop offset="1" stop-color="#949eff"/>
    </linearGradient>
    <linearGradient id="linear-gradient-2" x1="303.29" y1="444.92" x2="303.29" y2="223.29" gradientTransform="translate(77.51 -112.27) rotate(12.8) scale(1 1.17)" gradientUnits="userSpaceOnUse">
      <stop offset="0" stop-color="#07001b"/>
      <stop offset="1" stop-color="#9b9cb4"/>
    </linearGradient>
    <linearGradient id="linear-gradient-3" x1="3416.05" y1="60.4" x2="3416.05" y2="-110.19" gradientTransform="translate(284.34 2.69) rotate(48.12) scale(.15 .17)" gradientUnits="userSpaceOnUse">
      <stop offset="0" stop-color="#162e54"/>
      <stop offset="1" stop-color="#d8deff"/>
    </linearGradient>
    <linearGradient id="linear-gradient-4" x1="449.57" y1="524.98" x2="449.57" y2="354.38" gradientTransform="translate(104.95 114.88) rotate(4.19) scale(.19 .22)" xlink:href="#linear-gradient-3"/>
    <linearGradient id="linear-gradient-5" x1="1931.05" y1="328.25" x2="1931.05" y2="157.65" gradientTransform="translate(115.23 119.66) rotate(17.3) scale(.18 .22)" xlink:href="#linear-gradient-3"/>
    <linearGradient id="linear-gradient-6" x1="239.71" y1="426.35" x2="302.47" y2="317.66" gradientTransform="translate(573.76 25.21) rotate(77.2)" gradientUnits="userSpaceOnUse">
      <stop offset=".02" stop-color="#0f1a23"/>
      <stop offset="1" stop-color="#040206"/>
    </linearGradient>
  </defs>
  <g id="Layer_1-2" data-name="Layer 1">
    <g class="cls-15">
      <g>
        <rect class="cls-12" x=".5" y=".5" width="1919" height="1079"/>
        <path d="M1919,1v1078H1V1h1918M1920,0H0v1080h1920V0h0Z"/>
      </g>
      <g>
        <use width="3.4" height="3.4" transform="translate(1435.97 659.1)" xlink:href="#Star"/>
        <use width="3.4" height="3.4" transform="translate(1375.94 649.86)" xlink:href="#Star"/>
        <use width="3.4" height="3.4" transform="translate(1313.31 623.84)" xlink:href="#Star"/>
        <use width="3.4" height="3.4" transform="translate(1289.7 604.7)" xlink:href="#Star"/>
        <use width="3.4" height="3.4" transform="translate(1238.94 586.29)" xlink:href="#Star"/>
        <use width="3.4" height="3.4" transform="translate(1128.63 629.78)" xlink:href="#Star"/>
        <use width="3.4" height="3.4" transform="translate(1051.31 609.49)" xlink:href="#Star"/>
        <use width="3.4" height="3.4" transform="translate(1112.98 727.11)" xlink:href="#Star"/>
        <use width="3.4" height="3.4" transform="translate(1131.8 853.43)" xlink:href="#Star"/>
        <use width="3.4" height="3.4" transform="translate(1220.49 161.27)" xlink:href="#Star"/>
        <use width="3.4" height="3.4" transform="translate(1262.54 103.82)" xlink:href="#Star"/>
        <use width="3.4" height="3.4" transform="translate(1745.05 500.85)" xlink:href="#Star"/>
        <use width="3.4" height="3.4" transform="translate(1775.52 748.18)" xlink:href="#Star"/>
        <use width="3.4" height="3.4" transform="translate(803.74 680.55)" xlink:href="#Star"/>
        <use width="3.4" height="3.4" transform="translate(791.36 716.99)" xlink:href="#Star"/>
        <use width="3.4" height="3.4" transform="translate(758.85 654.28)" xlink:href="#Star"/>
        <use width="3.4" height="3.4" transform="translate(833.96 688.75)" xlink:href="#Star"/>
        <use width="3.4" height="3.4" transform="translate(415.49 628.91)" xlink:href="#Star"/>
        <use width="3.4" height="3.4" transform="translate(400 526.19)" xlink:href="#Star"/>
        <use width="3.4" height="3.4" transform="translate(219.54 622.52)" xlink:href="#Star"/>
        <use width="3.4" height="3.4" transform="translate(294.06 853.33)" xlink:href="#Star"/>
        <use width="3.4" height="3.4" transform="translate(439.74 846.11)" xlink:href="#Star"/>
        <use width="3.4" height="3.4" transform="translate(442.94 911.05)" xlink:href="#Star"/>
        <use width="3.4" height="3.4" transform="translate(498.94 911.04)" xlink:href="#Star"/>
        <use width="3.4" height="3.4" transform="translate(525.3 965.18)" xlink:href="#Star"/>
        <use width="3.4" height="3.4" transform="translate(677.54 923.86)" xlink:href="#Star"/>
        <use width="3.4" height="3.4" transform="translate(787.11 605.65)" xlink:href="#Star"/>
        <use width="3.4" height="3.4" transform="translate(637.09 559.87)" xlink:href="#Star"/>
        <use width="3.4" height="3.4" transform="translate(408.66 613.28)" xlink:href="#Star"/>
        <use width="3.4" height="3.4" transform="translate(574.4 849.57)" xlink:href="#Star"/>
        <use width="3.4" height="3.4" transform="translate(735.96 496.86)" xlink:href="#Star"/>
        <use width="3.4" height="3.4" transform="translate(199.78 614.24)" xlink:href="#Star"/>
        <use width="3.4" height="3.4" transform="translate(596.72 522.78)" xlink:href="#Star"/>
        <use width="3.4" height="3.4" transform="translate(141.42 240.22)" xlink:href="#Star"/>
        <use width="3.4" height="3.4" transform="translate(746.53 268.34)" xlink:href="#Star"/>
        <use width="3.4" height="3.4" transform="translate(653.48 33.83)" xlink:href="#Star"/>
        <use width="3.4" height="3.4" transform="translate(779.7 260.42)" xlink:href="#Star"/>
        <use width="3.4" height="3.4" transform="translate(771.59 21.76)" xlink:href="#Star"/>
        <use width="3.4" height="3.4" transform="translate(905.46 289.88)" xlink:href="#Star"/>
        <use width="3.4" height="3.4" transform="translate(585.11 106.62)" xlink:href="#Star"/>
        <use width="3.4" height="3.4" transform="translate(853.07 60.17)" xlink:href="#Star"/>
        <use width="3.4" height="3.4" transform="translate(619.19 61.8)" xlink:href="#Star"/>
        <use width="3.4" height="3.4" transform="translate(701.09 166.54)" xlink:href="#Star"/>
        <use width="3.4" height="3.4" transform="translate(566.42 200.7)" xlink:href="#Star"/>
        <use width="3.4" height="3.4" transform="translate(626.96 225.81)" xlink:href="#Star"/>
        <use width="3.4" height="3.4" transform="translate(564.95 252.34)" xlink:href="#Star"/>
        <use width="3.4" height="3.4" transform="translate(518.09 244.43)" xlink:href="#Star"/>
        <use width="3.4" height="3.4" transform="translate(507.67 165.4)" xlink:href="#Star"/>
        <use width="3.4" height="3.4" transform="translate(630.07 175.8)" xlink:href="#Star"/>
        <use width="3.4" height="3.4" transform="translate(92.58 110.77)" xlink:href="#Star"/>
        <use width="3.4" height="3.4" transform="translate(52.3 138.97)" xlink:href="#Star"/>
        <use width="3.4" height="3.4" transform="translate(7.63 103.1)" xlink:href="#Star"/>
        <use width="3.4" height="3.4" transform="translate(185.53 52.42)" xlink:href="#Star"/>
        <use width="3.4" height="3.4" transform="translate(246.95 3.35)" xlink:href="#Star"/>
        <use width="3.4" height="3.4" transform="translate(271.05 19.07)" xlink:href="#Star"/>
        <use width="3.4" height="3.4" transform="translate(280.78 37.65)" xlink:href="#Star"/>
        <use width="3.4" height="3.4" transform="translate(466.92 59.54)" xlink:href="#Star"/>
        <use width="3.4" height="3.4" transform="translate(461.12 5.18)" xlink:href="#Star"/>
        <use width="3.4" height="3.4" transform="translate(243.79 40.57)" xlink:href="#Star"/>
        <use width="3.4" height="3.4" transform="translate(1116.16 567.71)" xlink:href="#Star"/>
        <use width="3.4" height="3.4" transform="translate(928.96 616.62)" xlink:href="#Star"/>
        <use width="3.4" height="3.4" transform="translate(1060.36 394.34)" xlink:href="#Star"/>
        <use width="3.4" height="3.4" transform="translate(1123.83 392.63)" xlink:href="#Star"/>
        <use width="3.4" height="3.4" transform="translate(1150.19 437.6)" xlink:href="#Star"/>
        <use width="3.4" height="3.4" transform="translate(868.56 377.52)" xlink:href="#Star"/>
        <use width="3.4" height="3.4" transform="translate(737.49 403.61)" xlink:href="#Star"/>
        <use width="3.4" height="3.4" transform="translate(714.19 342.17)" xlink:href="#Star"/>
        <use width="3.4" height="3.4" transform="translate(925.44 214.32)" xlink:href="#Star"/>
        <use width="3.4" height="3.4" transform="translate(862.23 142.01)" xlink:href="#Star"/>
        <use width="3.4" height="3.4" transform="translate(934.72 92.57)" xlink:href="#Star"/>
        <use width="3.4" height="3.4" transform="translate(1124.49 154.67)" xlink:href="#Star"/>
        <use width="3.4" height="3.4" transform="translate(1588.76 162.63)" xlink:href="#Star"/>
        <use width="3.4" height="3.4" transform="translate(1501.03 213.25)" xlink:href="#Star"/>
        <use width="3.4" height="3.4" transform="translate(1527.36 262.89)" xlink:href="#Star"/>
        <use width="3.4" height="3.4" transform="translate(1401.49 64.13)" xlink:href="#Star"/>
        <use width="3.4" height="3.4" transform="translate(1601.12 328.91)" xlink:href="#Star"/>
        <use width="3.4" height="3.4" transform="translate(1506.26 551.25)" xlink:href="#Star"/>
        <use width="3.4" height="3.4" transform="translate(1521.86 674.63)" xlink:href="#Star"/>
        <use width="3.4" height="3.4" transform="translate(1417.5 756.41)" xlink:href="#Star"/>
        <use width="3.4" height="3.4" transform="translate(1349.75 796.4)" xlink:href="#Star"/>
        <use width="3.4" height="3.4" transform="translate(1318.66 833.91)" xlink:href="#Star"/>
        <use width="3.4" height="3.4" transform="translate(1397.27 876.76)" xlink:href="#Star"/>
        <use width="3.4" height="3.4" transform="translate(1219.4 790.64)" xlink:href="#Star"/>
        <use width="3.4" height="3.4" transform="translate(1148.66 781.17)" xlink:href="#Star"/>
        <use width="3.4" height="3.4" transform="translate(1072.86 816.82)" xlink:href="#Star"/>
        <use width="3.4" height="3.4" transform="translate(1041.56 827.89)" xlink:href="#Star"/>
        <use width="3.4" height="3.4" transform="translate(1012.41 862.32)" xlink:href="#Star"/>
        <use width="3.4" height="3.4" transform="translate(852.61 756.05)" xlink:href="#Star"/>
        <use width="3.4" height="3.4" transform="translate(782.53 763.67)" xlink:href="#Star"/>
        <use width="3.4" height="3.4" transform="translate(799.31 968.19)" xlink:href="#Star"/>
        <use width="3.4" height="3.4" transform="translate(1120.68 827.7)" xlink:href="#Star"/>
        <use width="3.4" height="3.4" transform="translate(938.57 651.72)" xlink:href="#Star"/>
        <use width="3.4" height="3.4" transform="translate(865.85 755.97)" xlink:href="#Star"/>
        <use width="3.4" height="3.4" transform="translate(889.13 662.35)" xlink:href="#Star"/>
        <use width="3.4" height="3.4" transform="translate(751.58 789.8)" xlink:href="#Star"/>
        <use width="3.4" height="3.4" transform="translate(698.62 738.72)" xlink:href="#Star"/>
        <use width="3.4" height="3.4" transform="translate(512.6 818.43)" xlink:href="#Star"/>
        <use width="3.4" height="3.4" transform="translate(554.8 712.18)" xlink:href="#Star"/>
        <use width="3.4" height="3.4" transform="translate(467.77 767.03)" xlink:href="#Star"/>
        <use width="3.4" height="3.4" transform="translate(576.78 691.4)" xlink:href="#Star"/>
        <use width="3.4" height="3.4" transform="translate(1291.36 225.83)" xlink:href="#Star"/>
        <use width="3.4" height="3.4" transform="translate(1145.17 244.16)" xlink:href="#Star"/>
        <use width="3.4" height="3.4" transform="translate(1146.29 126.34)" xlink:href="#Star"/>
        <use width="3.4" height="3.4" transform="translate(1067.88 211.5)" xlink:href="#Star"/>
        <use width="3.4" height="3.4" transform="translate(1220.09 102.34)" xlink:href="#Star"/>
        <use width="3.4" height="3.4" transform="translate(1220.08 70.49)" xlink:href="#Star"/>
        <use width="3.4" height="3.4" transform="translate(1220.79 687.03)" xlink:href="#Star"/>
        <use width="3.4" height="3.4" transform="translate(1072.85 673.19)" xlink:href="#Star"/>
        <use width="3.4" height="3.4" transform="translate(683.58 676.57)" xlink:href="#Star"/>
        <use width="3.4" height="3.4" transform="translate(642.7 649.09)" xlink:href="#Star"/>
        <use width="3.4" height="3.4" transform="translate(545.85 607.75)" xlink:href="#Star"/>
        <use width="3.4" height="3.4" transform="translate(458.4 666.92)" xlink:href="#Star"/>
        <use width="3.4" height="3.4" transform="translate(845.82 630.52)" xlink:href="#Star"/>
        <use width="3.4" height="3.4" transform="translate(735.65 602.68)" xlink:href="#Star"/>
        <use width="3.4" height="3.4" transform="translate(329.03 660.82)" xlink:href="#Star"/>
        <use width="3.4" height="3.4" transform="translate(674.17 674.19)" xlink:href="#Star"/>
        <use width="3.4" height="3.4" transform="translate(630.49 698.38)" xlink:href="#Star"/>
        <use width="3.4" height="3.4" transform="translate(433.15 781.12)" xlink:href="#Star"/>
        <use width="3.4" height="3.4" transform="translate(734.23 811.98)" xlink:href="#Star"/>
        <use width="3.4" height="3.4" transform="translate(694.07 842.44)" xlink:href="#Star"/>
      </g>
      <g>
        <use width="8" height="8" transform="translate(1483.15 762.17) scale(1.02)" xlink:href="#Circle2"/>
        <use width="8" height="8" transform="translate(1633.53 643.19) scale(1.02)" xlink:href="#Circle2"/>
        <use width="8" height="8" transform="translate(1581.69 142.15) scale(1.02)" xlink:href="#Circle2"/>
        <use width="8" height="8" transform="translate(147.72 840.5) scale(1.02)" xlink:href="#Circle2"/>
        <use width="8" height="8" transform="translate(-4.66 -6.89) scale(1.02)" xlink:href="#Circle2"/>
        <use width="8" height="8" transform="translate(1863.17 1029.88) scale(1.02)" xlink:href="#Circle2"/>
        <use width="5" height="5" transform="translate(1225.4 1070.63) scale(1.02)" xlink:href="#Circle_3"/>
        <use width="5" height="5" transform="translate(1555.29 1008.16) scale(1.02)" xlink:href="#Circle_3"/>
        <use width="5" height="5" transform="translate(20.75 372.72) scale(1.02)" xlink:href="#Circle_3"/>
        <use width="5" height="5" transform="translate(51.95 596.5) scale(1.02)" xlink:href="#Circle_3"/>
        <use width="5" height="5" transform="translate(135.18 472.76) scale(1.02)" xlink:href="#Circle_3"/>
        <use width="5" height="5" transform="translate(55.58 174.15) scale(1.02)" xlink:href="#Circle_3"/>
        <use width="5" height="5" transform="translate(276.18 133.01) scale(1.02)" xlink:href="#Circle_3"/>
        <use width="5" height="5" transform="translate(148.19 16.88) scale(1.02)" xlink:href="#Circle_3"/>
        <use width="5" height="5" transform="translate(.45 92.73) scale(1.02)" xlink:href="#Circle_3"/>
        <use width="5" height="5" transform="translate(560.23 -1.77) scale(1.02)" xlink:href="#Circle_3"/>
        <use width="5" height="5" transform="translate(499.41 823.33) scale(1.02)" xlink:href="#Circle_3"/>
        <use width="5" height="5" transform="translate(-1.06 1047.26) scale(1.02)" xlink:href="#Circle_3"/>
        <use width="5" height="5" transform="translate(65.92 900.16) scale(1.02)" xlink:href="#Circle_3"/>
        <use width="5" height="5" transform="translate(313.42 1017.55) scale(1.02)" xlink:href="#Circle_3"/>
        <use width="5" height="5" transform="translate(850.63 594.78) scale(1.02)" xlink:href="#Circle_3"/>
        <use width="5" height="5" transform="translate(388.53 397.58) scale(1.02)" xlink:href="#Circle_3"/>
        <use width="5" height="5" transform="translate(999.06 395.89) scale(1.02)" xlink:href="#Circle_3"/>
        <use width="5" height="5" transform="translate(1361.26 408.31) scale(1.02)" xlink:href="#Circle_3"/>
        <use width="5" height="5" transform="translate(1444.01 936.03) scale(1.02)" xlink:href="#Circle_3"/>
        <use width="5" height="5" transform="translate(1065.97 962.49) scale(1.02)" xlink:href="#Circle_3"/>
        <use width="5" height="5" transform="translate(1587.98 508.31) scale(1.02)" xlink:href="#Circle_3"/>
        <use width="5" height="5" transform="translate(1680.33 309.79) scale(1.02)" xlink:href="#Circle_3"/>
        <use width="5" height="5" transform="translate(1825.86 206.46) scale(1.02)" xlink:href="#Circle_3"/>
        <use width="5" height="5" transform="translate(1127.27 -1.66) scale(1.02)" xlink:href="#Circle_3"/>
        <use width="5" height="5" transform="translate(686.82 142.43) scale(1.02)" xlink:href="#Circle_3"/>
        <use width="5" height="5" transform="translate(1863.14 738.63) scale(1.02)" xlink:href="#Circle_3"/>
        <use width="5" height="5" transform="translate(274.39 665.2) scale(1.02)" xlink:href="#Circle_3"/>
      </g>
      <g>
        <use width="2" height="2" transform="translate(1671.55 596.29)" xlink:href="#Circle"/>
        <use width="2" height="2" transform="translate(1716.03 711.44)" xlink:href="#Circle"/>
        <use width="2" height="2" transform="translate(1827.27 637.08)" xlink:href="#Circle"/>
        <use width="2" height="2" transform="translate(1582.33 772.48)" xlink:href="#Circle"/>
        <use width="2" height="2" transform="translate(1719.15 968.31)" xlink:href="#Circle"/>
        <use width="2" height="2" transform="translate(1773.19 872.74)" xlink:href="#Circle"/>
        <use width="2" height="2" transform="translate(1773.17 1043.1)" xlink:href="#Circle"/>
        <use width="2" height="2" transform="translate(1840.8 971.44)" xlink:href="#Circle"/>
        <use width="2" height="2" transform="translate(1630.07 1024.48)" xlink:href="#Circle"/>
        <use width="2" height="2" transform="translate(1711.44 1015.14)" xlink:href="#Circle"/>
        <use width="2" height="2" transform="translate(1207.65 904.6)" xlink:href="#Circle"/>
        <use width="2" height="2" transform="translate(767.16 874.78)" xlink:href="#Circle"/>
        <use width="2" height="2" transform="translate(250.74 965.69)" xlink:href="#Circle"/>
        <use width="2" height="2" transform="translate(327.77 929.26)" xlink:href="#Circle"/>
        <use width="2" height="2" transform="translate(92.05 868.03)" xlink:href="#Circle"/>
        <use width="2" height="2" transform="translate(153.82 959.01)" xlink:href="#Circle"/>
        <use width="2" height="2" transform="translate(42.05 765.08)" xlink:href="#Circle"/>
        <use width="2" height="2" transform="translate(3.24 786.85)" xlink:href="#Circle"/>
        <use width="2" height="2" transform="translate(158.01 298.21)" xlink:href="#Circle"/>
        <use width="2" height="2" transform="translate(45.75 354.77)" xlink:href="#Circle"/>
        <use width="2" height="2" transform="translate(274.55 163.46)" xlink:href="#Circle"/>
        <use width="2" height="2" transform="translate(38.42 65.01)" xlink:href="#Circle"/>
        <use width="2" height="2" transform="translate(136.17 70.17)" xlink:href="#Circle"/>
        <use width="2" height="2" transform="translate(492.79 242.14)" xlink:href="#Circle"/>
        <use width="2" height="2" transform="translate(751.97 35.69)" xlink:href="#Circle"/>
        <use width="2" height="2" transform="translate(874.19 211.24)" xlink:href="#Circle"/>
        <use width="2" height="2" transform="translate(1482.44 97.3)" xlink:href="#Circle"/>
        <use width="2" height="2" transform="translate(1708.81 11.64)" xlink:href="#Circle"/>
        <use width="2" height="2" transform="translate(1642.52 218.83)" xlink:href="#Circle"/>
        <use width="2" height="2" transform="translate(1662.45 821.81)" xlink:href="#Circle"/>
        <use width="2" height="2" transform="translate(907.99 535.05)" xlink:href="#Circle"/>
        <use width="2" height="2" transform="translate(1467.17 617.87)" xlink:href="#Circle"/>
        <use width="2" height="2" transform="translate(290.33 545.57)" xlink:href="#Circle"/>
        <use width="2" height="2" transform="translate(1024.31 372.56)" xlink:href="#Circle"/>
        <use width="2" height="2" transform="translate(993.74 792.85)" xlink:href="#Circle"/>
        <use width="2" height="2" transform="translate(757.85 576.42)" xlink:href="#Circle"/>
        <use width="2" height="2" transform="translate(479.51 1013.87)" xlink:href="#Circle"/>
        <use width="2" height="2" transform="translate(563.4 562.58)" xlink:href="#Circle"/>
        <use width="2" height="2" transform="translate(563.17 832.84)" xlink:href="#Circle"/>
        <use width="2" height="2" transform="translate(128.47 1058.64)" xlink:href="#Circle"/>
        <use width="2" height="2" transform="translate(152.13 1041.45)" xlink:href="#Circle"/>
        <use width="2" height="2" transform="translate(11.4 1050.39)" xlink:href="#Circle"/>
        <use width="2" height="2" transform="translate(18.75 919.35)" xlink:href="#Circle"/>
        <use width="2" height="2" transform="translate(70.4 233.68)" xlink:href="#Circle"/>
        <use width="2" height="2" transform="translate(172.05 324.75)" xlink:href="#Circle"/>
        <use width="2" height="2" transform="translate(1093.42 59.7)" xlink:href="#Circle"/>
        <use width="2" height="2" transform="translate(1593.05 200.26)" xlink:href="#Circle"/>
        <use width="2" height="2" transform="translate(1743.89 150.14)" xlink:href="#Circle"/>
        <use width="2" height="2" transform="translate(1825.09 807.93)" xlink:href="#Circle"/>
        <use width="2" height="2" transform="translate(1838.15 824.15)" xlink:href="#Circle"/>
        <use width="2" height="2" transform="translate(1263.2 704.92)" xlink:href="#Circle"/>
        <use width="2" height="2" transform="translate(1303.21 227.88)" xlink:href="#Circle"/>
        <use width="2" height="2" transform="translate(1557.99 318.43)" xlink:href="#Circle"/>
        <use width="2" height="2" transform="translate(1413.71 250.8)" xlink:href="#Circle"/>
        <use width="2" height="2" transform="translate(1562.55 470.49)" xlink:href="#Circle"/>
        <use width="2" height="2" transform="translate(1888.82 259.79)" xlink:href="#Circle"/>
        <use width="2" height="2" transform="translate(1808.32 447.42)" xlink:href="#Circle"/>
        <use width="2" height="2" transform="translate(1867.07 384.37)" xlink:href="#Circle"/>
        <use width="2" height="2" transform="translate(1910.43 136.99)" xlink:href="#Circle"/>
        <use width="2" height="2" transform="translate(1861.28 84.68)" xlink:href="#Circle"/>
        <use width="2" height="2" transform="translate(1910.68 44.71)" xlink:href="#Circle"/>
        <use width="2" height="2" transform="translate(1877.71 3.19)" xlink:href="#Circle"/>
        <use width="2" height="2" transform="translate(1384.39 301.76)" xlink:href="#Circle"/>
        <use width="2" height="2" transform="translate(1088.87 224.85)" xlink:href="#Circle"/>
        <use width="2" height="2" transform="translate(419.34 782.37)" xlink:href="#Circle"/>
        <use width="2" height="2" transform="translate(443.93 679.23)" xlink:href="#Circle"/>
        <use width="2" height="2" transform="translate(30.04 659.38)" xlink:href="#Circle"/>
        <use width="2" height="2" transform="translate(95.87 786.52)" xlink:href="#Circle"/>
        <use width="2" height="2" transform="translate(1243.44 996.14)" xlink:href="#Circle"/>
        <use width="2" height="2" transform="translate(1369.25 1066.68)" xlink:href="#Circle"/>
        <use width="2" height="2" transform="translate(906.47 943.56)" xlink:href="#Circle"/>
        <use width="2" height="2" transform="translate(782.36 1020.55)" xlink:href="#Circle"/>
        <use width="2" height="2" transform="translate(671.87 1002.18)" xlink:href="#Circle"/>
        <use width="2" height="2" transform="translate(1041.11 1066.5)" xlink:href="#Circle"/>
        <use width="2" height="2" transform="translate(1177.21 1040.51)" xlink:href="#Circle"/>
        <use width="2" height="2" transform="translate(1410.48 898.73)" xlink:href="#Circle"/>
        <use width="2" height="2" transform="translate(1417.17 1075.51)" xlink:href="#Circle"/>
        <use width="2" height="2" transform="translate(1596.55 941.88)" xlink:href="#Circle"/>
        <use width="2" height="2" transform="translate(1453.64 921.59)" xlink:href="#Circle"/>
        <use width="2" height="2" transform="translate(1568 1051.33)" xlink:href="#Circle"/>
        <use width="2" height="2" transform="translate(1635.83 991.58)" xlink:href="#Circle"/>
        <use width="2" height="2" transform="translate(1596.44 971.19)" xlink:href="#Circle"/>
        <use width="2" height="2" transform="translate(1764.62 989.64)" xlink:href="#Circle"/>
        <use width="2" height="2" transform="translate(1788.8 663.54)" xlink:href="#Circle"/>
        <use width="2" height="2" transform="translate(1553.05 835.14)" xlink:href="#Circle"/>
        <use width="2" height="2" transform="translate(1809.87 657.28)" xlink:href="#Circle"/>
        <use width="2" height="2" transform="translate(1586.46 589.73)" xlink:href="#Circle"/>
        <use width="2" height="2" transform="translate(1656.18 452.59)" xlink:href="#Circle"/>
        <use width="2" height="2" transform="translate(1502.57 358.43)" xlink:href="#Circle"/>
        <use width="2" height="2" transform="translate(1863.43 290.72)" xlink:href="#Circle"/>
        <use width="2" height="2" transform="translate(1365.57 128.88)" xlink:href="#Circle"/>
        <use width="2" height="2" transform="translate(1124.76 309.7)" xlink:href="#Circle"/>
        <use width="2" height="2" transform="translate(640.4 307.45)" xlink:href="#Circle"/>
        <use width="2" height="2" transform="translate(809.84 164.03)" xlink:href="#Circle"/>
        <use width="2" height="2" transform="translate(27.48 277.06)" xlink:href="#Circle"/>
        <use width="2" height="2" transform="translate(466.46 202.93)" xlink:href="#Circle"/>
        <use width="2" height="2" transform="translate(108.52 212.72)" xlink:href="#Circle"/>
        <use width="2" height="2" transform="translate(114.19 21.81)" xlink:href="#Circle"/>
        <use width="2" height="2" transform="translate(42.16 343.52)" xlink:href="#Circle"/>
        <use width="2" height="2" transform="translate(10.66 652.84)" xlink:href="#Circle"/>
        <use width="2" height="2" transform="translate(131.3 536.95)" xlink:href="#Circle"/>
        <use width="2" height="2" transform="translate(120.43 821.45)" xlink:href="#Circle"/>
        <use width="2" height="2" transform="translate(99.59 996.21)" xlink:href="#Circle"/>
        <use width="2" height="2" transform="translate(307.41 994.31)" xlink:href="#Circle"/>
        <use width="2" height="2" transform="translate(211.95 952.09)" xlink:href="#Circle"/>
        <use width="2" height="2" transform="translate(486 1018.94)" xlink:href="#Circle"/>
        <use width="2" height="2" transform="translate(579.02 891.04)" xlink:href="#Circle"/>
        <use width="2" height="2" transform="translate(1249.23 902.5)" xlink:href="#Circle"/>
        <use width="2" height="2" transform="translate(1273.64 733.13)" xlink:href="#Circle"/>
        <use width="2" height="2" transform="translate(724.29 840.51)" xlink:href="#Circle"/>
        <use width="2" height="2" transform="translate(796.09 845.54)" xlink:href="#Circle"/>
        <use width="2" height="2" transform="translate(483.03 536.38)" xlink:href="#Circle"/>
        <use width="2" height="2" transform="translate(101.93 589.52)" xlink:href="#Circle"/>
        <use width="2" height="2" transform="translate(288.76 480.96)" xlink:href="#Circle"/>
        <use width="2" height="2" transform="translate(190.53 362.76)" xlink:href="#Circle"/>
        <use width="2" height="2" transform="translate(368.38 268.56)" xlink:href="#Circle"/>
        <use width="2" height="2" transform="translate(333.64 168.1)" xlink:href="#Circle"/>
        <use width="2" height="2" transform="translate(718.01 63.48)" xlink:href="#Circle"/>
        <use width="2" height="2" transform="translate(615.89 77.69)" xlink:href="#Circle"/>
        <use width="2" height="2" transform="translate(987.43 192.78)" xlink:href="#Circle"/>
        <use width="2" height="2" transform="translate(1091.8 274.75)" xlink:href="#Circle"/>
        <use width="2" height="2" transform="translate(1502.44 483.38)" xlink:href="#Circle"/>
        <use width="2" height="2" transform="translate(1418.55 428.12)" xlink:href="#Circle"/>
        <use width="2" height="2" transform="translate(1719.72 415.75)" xlink:href="#Circle"/>
        <use width="2" height="2" transform="translate(1732.01 356.16)" xlink:href="#Circle"/>
        <use width="2" height="2" transform="translate(383.19 18.57)" xlink:href="#Circle"/>
        <use width="2" height="2" transform="translate(157.76 21.75)" xlink:href="#Circle"/>
        <use width="2" height="2" transform="translate(145.58 56.93)" xlink:href="#Circle"/>
        <use width="2" height="2" transform="translate(535.84 88.24)" xlink:href="#Circle"/>
        <use width="2" height="2" transform="translate(685.17 88.27)" xlink:href="#Circle"/>
        <use width="2" height="2" transform="translate(544.95 79.01)" xlink:href="#Circle"/>
        <use width="2" height="2" transform="translate(277.86 69.55)" xlink:href="#Circle"/>
        <use width="2" height="2" transform="translate(306.96 59.2)" xlink:href="#Circle"/>
        <use width="2" height="2" transform="translate(1127.13 67.29)" xlink:href="#Circle"/>
        <use width="2" height="2" transform="translate(946.71 48.77)" xlink:href="#Circle"/>
        <use width="2" height="2" transform="translate(854.94 42.73)" xlink:href="#Circle"/>
        <use width="2" height="2" transform="translate(1222.95 14.23)" xlink:href="#Circle"/>
        <use width="2" height="2" transform="translate(1416.6 34.35)" xlink:href="#Circle"/>
        <use width="2" height="2" transform="translate(1871.89 916.97)" xlink:href="#Circle"/>
        <use width="2" height="2" transform="translate(1869.86 968.64)" xlink:href="#Circle"/>
        <use width="2" height="2" transform="translate(1892.66 1015.03)" xlink:href="#Circle"/>
        <use width="2" height="2" transform="translate(1894.56 984.17)" xlink:href="#Circle"/>
        <use width="2" height="2" transform="translate(1897.82 990.63)" xlink:href="#Circle"/>
        <use width="2" height="2" transform="translate(1899.38 925.33)" xlink:href="#Circle"/>
        <use width="2" height="2" transform="translate(1919.39 682.09)" xlink:href="#Circle"/>
        <use width="2" height="2" transform="translate(1919.26 559.29)" xlink:href="#Circle"/>
        <use width="2" height="2" transform="translate(1894.63 493.89)" xlink:href="#Circle"/>
        <use width="2" height="2" transform="translate(1887.61 482.46)" xlink:href="#Circle"/>
        <use width="2" height="2" transform="translate(1833.35 661.77)" xlink:href="#Circle"/>
        <use width="2" height="2" transform="translate(1859.62 796.46)" xlink:href="#Circle"/>
        <use width="2" height="2" transform="translate(1874.85 787.89)" xlink:href="#Circle"/>
        <use width="2" height="2" transform="translate(1883.76 522.61)" xlink:href="#Circle"/>
        <use width="2" height="2" transform="translate(1822.23 327.58)" xlink:href="#Circle"/>
        <use width="2" height="2" transform="translate(1742.58 75.95)" xlink:href="#Circle"/>
        <use width="2" height="2" transform="translate(1732.66 21.33)" xlink:href="#Circle"/>
        <use width="2" height="2" transform="translate(1800.26 114.37)" xlink:href="#Circle"/>
        <use width="2" height="2" transform="translate(1804.4 139.76)" xlink:href="#Circle"/>
        <use width="2" height="2" transform="translate(1738.16 118.93)" xlink:href="#Circle"/>
        <use width="3.4" height="3.4" transform="translate(1688.35 892.07)" xlink:href="#Star"/>
        <use width="3.4" height="3.4" transform="translate(1795.2 984.75)" xlink:href="#Star"/>
        <use width="3.4" height="3.4" transform="translate(1579.77 845)" xlink:href="#Star"/>
        <use width="3.4" height="3.4" transform="translate(1227.7 949.47)" xlink:href="#Star"/>
        <use width="3.4" height="3.4" transform="translate(1334.39 965.88)" xlink:href="#Star"/>
        <use width="3.4" height="3.4" transform="translate(719 825.78)" xlink:href="#Star"/>
        <use width="3.4" height="3.4" transform="translate(197.62 958.43)" xlink:href="#Star"/>
        <use width="3.4" height="3.4" transform="translate(316.95 950.05)" xlink:href="#Star"/>
        <use width="3.4" height="3.4" transform="translate(47.38 989.1)" xlink:href="#Star"/>
        <use width="3.4" height="3.4" transform="translate(135.68 966.58)" xlink:href="#Star"/>
        <use width="3.4" height="3.4" transform="translate(75.99 880.35)" xlink:href="#Star"/>
        <use width="3.4" height="3.4" transform="translate(177.33 676.82)" xlink:href="#Star"/>
        <use width="3.4" height="3.4" transform="translate(140.47 787.4)" xlink:href="#Star"/>
        <use width="3.4" height="3.4" transform="translate(277.79 695.4)" xlink:href="#Star"/>
        <use width="3.4" height="3.4" transform="translate(196.23 785.61)" xlink:href="#Star"/>
        <use width="3.4" height="3.4" transform="translate(339.51 691.31)" xlink:href="#Star"/>
        <use width="3.4" height="3.4" transform="translate(125.76 548.3)" xlink:href="#Star"/>
        <use width="3.4" height="3.4" transform="translate(72.22 617.56)" xlink:href="#Star"/>
        <use width="3.4" height="3.4" transform="translate(35.41 441.75)" xlink:href="#Star"/>
        <use width="3.4" height="3.4" transform="translate(37.56 257.02)" xlink:href="#Star"/>
        <use width="3.4" height="3.4" transform="translate(356.82 5.24)" xlink:href="#Star"/>
        <use width="3.4" height="3.4" transform="translate(508.53 112.2)" xlink:href="#Star"/>
        <use width="3.4" height="3.4" transform="translate(1035.53 116.15)" xlink:href="#Star"/>
        <use width="3.4" height="3.4" transform="translate(1066.89 99.44)" xlink:href="#Star"/>
        <use width="3.4" height="3.4" transform="translate(1599.92 68.86)" xlink:href="#Star"/>
        <use width="3.4" height="3.4" transform="translate(1518.14 54.15)" xlink:href="#Star"/>
        <use width="3.4" height="3.4" transform="translate(1667.89 6.22)" xlink:href="#Star"/>
        <use width="3.4" height="3.4" transform="translate(1661.23 28.21)" xlink:href="#Star"/>
        <use width="3.4" height="3.4" transform="translate(1746.5 43.86)" xlink:href="#Star"/>
      </g>
      <path class="cls-2" d="M116.1,217.78c23.7-104.27,127.43-169.59,231.7-145.89s169.59,127.43,145.89,231.7"/>
      <g>
        <path class="cls-1" d="M660.09,423.49c-10.41,70.43-208.59,83.58-432.36,31.31C14.15,404.45-121.02,312.11-84.46,246.61c35.38-65.72,207.67-83.75,395.11-38.33,197.63,47.34,358.69,144.56,349.45,215.21Z"/>
        <path class="cls-7" d="M660.09,423.49c-10.41,70.43-208.59,83.58-432.36,31.31C14.15,404.45-121.02,312.11-84.46,246.61c35.38-65.72,207.67-83.75,395.11-38.33,197.63,47.34,358.69,144.56,349.45,215.21Z"/>
      </g>
      <ellipse class="cls-8" cx="274.41" cy="359.11" rx="95.7" ry="349.37" transform="translate(-136.59 547.11) rotate(-77.2)"/>
      <path class="cls-5" d="M609.06,378.19c7.42-15.94,24.66-14.65,35.47-2.59s8.32,31.99-9.46,34.07"/>
      <path class="cls-3" d="M155.36,230.23c-7.18-20.58,9.47-34.21,29.71-32.73,20.24,1.48,35.32,21.39,21.11,38.49"/>
      <path class="cls-6" d="M408.52,283.04c-2.05-21.57,16.76-31.21,35.49-25.38,18.73,5.83,28.39,28.46,11.08,42.01"/>
      <ellipse class="cls-4" cx="271.09" cy="372" rx="37.63" ry="173.95" transform="translate(-151.74 553.91) rotate(-77.2)"/>
      <path class="cls-10" d="M644.24,393.5c-1.11,4.89-4.19,8.71-7.91,10.43,5.24-.22,9.98-4.16,11.27-9.84s-1.54-11.83-6.6-14.08c3.04,3.12,4.43,8.24,3.24,13.5Z"/>
      <path class="cls-10" d="M252.2,96.8c26.04-8.95,50.6-11.84,66.14-8.82-11.14-9.21-39.52-9.11-69.77,1.29-31.73,10.9-54.85,29.46-56.13,43.9,9.41-12.66,31.76-26.75,59.76-36.37Z"/>
      <path class="cls-10" d="M175.06,207.98c6.25-2.15,12.46-1.89,16.68.27-3.44-4.45-10.81-6.08-18.07-3.58s-12.53,8.88-12.01,14.75c1.7-4.65,6.68-9.13,13.4-11.44Z"/>
      <path class="cls-10" d="M451.84,270.74c3.91,4.01,5.81,9.01,5.47,13.23,2.5-4.58,1.33-11.06-3.21-15.72s-11.62-6.11-16.29-3.24c4.42-.62,9.83,1.41,14.03,5.72Z"/>
    </g>
  </g>
</svg>