<?xml version="1.0" encoding="UTF-8"?>
<svg id="Layer_2" data-name="Layer 2" xmlns="http://www.w3.org/2000/svg" xmlns:xlink="http://www.w3.org/1999/xlink" viewBox="0 0 50.93 67.71">
  <defs>
    <style>
    </style>
    <symbol id="exit1" viewBox="0 0 91.59 121">
      <g>
        <path d="M.65,62.13l23.23,20.75c1.25,1.12,3.24.23,3.24-1.45v-41.5c0-1.68-1.98-2.57-3.24-1.45L.65,59.23c-.86.77-.86,2.12,0,2.9Z"/>
        <rect x="21.36" y="53.07" width="37.23" height="16.13" rx="3.31" ry="3.31"/>
        <path d="M81.34,0h-46.75v15.55h34.17c4.28,0,7.74,4.14,7.74,9.24v70.47c0,5.1-3.47,9.24-7.74,9.24h-34.17v16.51h46.75c5.66,0,10.25-5.47,10.25-12.22V12.22c0-6.75-4.59-12.22-10.25-12.22Z"/>
      </g>
    </symbol>
  </defs>
  <g id="Layer_1-2" data-name="Layer 1">
    <use width="91.59" height="121" transform="translate(0) scale(.56)" xlink:href="#exit1"/>
  </g>
</svg>