<?xml version="1.0" encoding="UTF-8"?>
<svg id="Layer_2" data-name="Layer 2" xmlns="http://www.w3.org/2000/svg" xmlns:xlink="http://www.w3.org/1999/xlink" viewBox="0 0 410.57 322.5">
  <defs>
    <style>
      .cls-1 {
        fill: url(#linear-gradient-2);
      }

      .cls-2 {
        filter: url(#drop-shadow-2);
      }

      .cls-2, .cls-3, .cls-4 {
        fill: #29abe2;
      }

      .cls-3 {
        filter: url(#drop-shadow-3);
      }

      .cls-5 {
        fill: #fff;
      }

      .cls-6 {
        fill: #738080;
      }

      .cls-7 {
        fill: url(#linear-gradient-4);
      }

      .cls-8 {
        fill: url(#linear-gradient-3);
      }

      .cls-9 {
        fill: #b1bdc1;
      }

      .cls-10 {
        clip-path: url(#clippath-1);
      }

      .cls-11 {
        fill: url(#linear-gradient-5);
      }

      .cls-12 {
        fill: #858f9d;
      }

      .cls-13 {
        fill: #eb0006;
      }

      .cls-14 {
        fill: #9af3ff;
      }

      .cls-4 {
        filter: url(#drop-shadow-1);
      }

      .cls-15 {
        fill: #d10006;
      }

      .cls-16 {
        fill: url(#linear-gradient-7);
      }

      .cls-17 {
        fill: #999;
      }

      .cls-18 {
        fill: url(#linear-gradient-6);
      }

      .cls-19 {
        fill: #ccc;
      }

      .cls-20 {
        fill: #b3b3b3;
      }

      .cls-21 {
        fill: #ed1c24;
      }

      .cls-22 {
        fill: url(#linear-gradient);
      }

      .cls-23 {
        fill: #97a1a3;
      }

      .cls-24 {
        clip-path: url(#clippath);
      }

      .cls-25 {
        fill: #e6e6e6;
      }
    </style>
    <linearGradient id="linear-gradient" x1="141.2" y1="41.62" x2="144.1" y2="41.62" gradientUnits="userSpaceOnUse">
      <stop offset=".17" stop-color="#c1c1c1"/>
      <stop offset=".22" stop-color="#f4f5f5"/>
      <stop offset=".42" stop-color="#fff"/>
      <stop offset=".6" stop-color="#c1c1c1"/>
    </linearGradient>
    <linearGradient id="linear-gradient-2" x1="185.36" y1="120.71" x2="220.83" y2="120.71" gradientUnits="userSpaceOnUse">
      <stop offset=".25" stop-color="#b3b3b3"/>
      <stop offset=".25" stop-color="#ccc"/>
      <stop offset=".73" stop-color="#b3b3b3"/>
      <stop offset=".74" stop-color="gray"/>
    </linearGradient>
    <linearGradient id="linear-gradient-3" x1="203.1" y1="301.51" x2="203.1" y2="245.04" gradientUnits="userSpaceOnUse">
      <stop offset=".65" stop-color="#959595"/>
      <stop offset=".95" stop-color="#707070"/>
    </linearGradient>
    <filter id="drop-shadow-1" x="193.37" y="85.06" width="28.55" height="8.02" filterUnits="userSpaceOnUse">
      <feOffset dx="-1.04" dy="2.59"/>
      <feGaussianBlur result="blur" stdDeviation="0"/>
      <feFlood flood-color="#3f512e" flood-opacity=".67"/>
      <feComposite in2="blur" operator="in"/>
      <feComposite in="SourceGraphic"/>
    </filter>
    <filter id="drop-shadow-2" x="157.47" y="67.69" width="40.92" height="42.04" filterUnits="userSpaceOnUse">
      <feOffset dx="-.74" dy="1.86"/>
      <feGaussianBlur result="blur-2" stdDeviation="0"/>
      <feFlood flood-color="#3f512e" flood-opacity=".67"/>
      <feComposite in2="blur-2" operator="in"/>
      <feComposite in="SourceGraphic"/>
    </filter>
    <linearGradient id="linear-gradient-4" x1="16.06" y1="193.36" x2="76.64" y2="193.36" gradientUnits="userSpaceOnUse">
      <stop offset=".43" stop-color="#eb0006"/>
      <stop offset="1" stop-color="#c1272d"/>
    </linearGradient>
    <clipPath id="clippath">
      <circle class="cls-14" cx="178.36" cy="87.92" r="16.18"/>
    </clipPath>
    <linearGradient id="linear-gradient-5" x1="326.26" y1="192.92" x2="392.11" y2="192.92" gradientUnits="userSpaceOnUse">
      <stop offset="0" stop-color="#c1272d"/>
      <stop offset=".51" stop-color="#eb0006"/>
    </linearGradient>
    <linearGradient id="linear-gradient-6" x1="143.74" y1="186.78" x2="161.11" y2="186.78" gradientUnits="userSpaceOnUse">
      <stop offset=".65" stop-color="#959595"/>
      <stop offset=".67" stop-color="#707070"/>
    </linearGradient>
    <linearGradient id="linear-gradient-7" x1="1210.23" y1="186.76" x2="1226.88" y2="186.76" gradientTransform="translate(1480.6) rotate(-180) scale(1 -1)" xlink:href="#linear-gradient-6"/>
    <filter id="drop-shadow-3" x="210.32" y="67.69" width="40.92" height="42.04" filterUnits="userSpaceOnUse">
      <feOffset dx="-.74" dy="1.86"/>
      <feGaussianBlur result="blur-3" stdDeviation="0"/>
      <feFlood flood-color="#3f512e" flood-opacity=".67"/>
      <feComposite in2="blur-3" operator="in"/>
      <feComposite in="SourceGraphic"/>
    </filter>
    <clipPath id="clippath-1">
      <circle class="cls-14" cx="230.98" cy="87.7" r="16.18"/>
    </clipPath>
  </defs>
  <g id="Layer_1-2" data-name="Layer 1">
    <g>
      <rect class="cls-22" x="141.2" y="5.43" width="2.9" height="72.39"/>
      <rect class="cls-1" x="185.36" y="107.14" width="35.47" height="27.15"/>
      <rect class="cls-17" x="139.76" y="76.01" width="16.29" height="24.97"/>
      <rect class="cls-8" x="177.04" y="245.04" width="52.12" height="56.46"/>
      <polygon class="cls-12" points="255.1 116.55 153.69 116.55 146.01 59 261.9 59 255.1 116.55"/>
      <rect class="cls-9" x="67.37" y="175.19" width="107.5" height="23.16"/>
      <rect class="cls-9" x="236.04" y="175.19" width="107.5" height="23.16"/>
      <polygon class="cls-20" points="252.32 114.02 156.77 114.02 149.53 62.26 258.74 62.26 252.32 114.02"/>
      <circle class="cls-25" cx="142.83" cy="3.44" r="3.44"/>
      <polygon class="cls-6" points="291.05 322.5 116.59 322.5 136.28 297.89 271.86 297.89 291.05 322.5"/>
      <rect class="cls-4" x="194.41" y="85.06" width="27.51" height="5.43"/>
      <circle class="cls-2" cx="178.3" cy="87.77" r="20.09"/>
      <circle class="cls-13" cx="25.88" cy="193.46" r="25.88"/>
      <path class="cls-7" d="M26.32,167.58c-3.42,16.27-6.84,32.55-10.26,48.82,18.3,11.82,41.61-19.1,60.58-8.36v-40.46H26.32Z"/>
      <path class="cls-15" d="M29.9,210.23c-4.28-2.49-5.8-8.1-3.96-13.36-.52.55-.98,1.16-1.37,1.84-2.83,4.87-1.14,11.14,3.78,14s11.21,1.24,14.05-3.62c.32-.55.58-1.11.79-1.69-3.66,3.95-9.12,5.25-13.28,2.83Z"/>
      <g>
        <circle class="cls-14" cx="178.36" cy="87.92" r="16.18"/>
        <g class="cls-24">
          <g>
            <path class="cls-14" d="M172.87,68.52c14.7,9.5,28.41,20.51,40.86,32.8"/>
            <path class="cls-5" d="M171.78,70.4c14.54,9.47,28.03,20.31,40.42,32.46,2,1.96,5.07-1.11,3.07-3.07-12.65-12.4-26.46-23.48-41.3-33.14-2.35-1.53-4.53,2.23-2.19,3.75h0Z"/>
          </g>
          <g>
            <path class="cls-14" d="M177.34,69.59c8.16,3.38,15.91,7.73,23.04,12.93"/>
            <path class="cls-5" d="M176.24,71.46c8.17,3.45,15.84,7.76,23.04,12.93,2.27,1.63,4.44-2.13,2.19-3.75-7.2-5.17-14.87-9.48-23.04-12.93-2.54-1.08-4.76,2.66-2.19,3.75h0Z"/>
          </g>
          <g>
            <path class="cls-14" d="M162.66,67.14c13.33,11.3,27.09,22.09,41.25,32.33"/>
            <path class="cls-5" d="M161.12,68.67c13.49,11.41,27.39,22.3,41.69,32.67,2.27,1.64,4.44-2.12,2.19-3.75-14-10.16-27.6-20.82-40.81-31.99-2.12-1.79-5.21,1.26-3.07,3.07h0Z"/>
          </g>
          <g>
            <path class="cls-14" d="M163.57,78.31c19.08,16.11,38.7,31.57,58.83,46.35"/>
            <path class="cls-5" d="M162.8,79.08c19.17,16.15,38.86,31.67,59.05,46.52,1.13.83,2.21-1.05,1.1-1.88-20.04-14.75-39.58-30.15-58.61-46.18-1.06-.9-2.61.63-1.54,1.54h0Z"/>
          </g>
        </g>
      </g>
      <ellipse class="cls-13" cx="381.27" cy="193.14" rx="29.3" ry="25.88"/>
      <path class="cls-11" d="M384.44,167.4l7.68,48.17c-20.53,12.04-44.81-18.46-65.85-7.43v-40.73h58.17Z"/>
      <path class="cls-15" d="M379.18,210.05c4.84-2.49,6.57-8.1,4.49-13.36.58.55,1.11,1.16,1.55,1.84,3.21,4.87,1.29,11.14-4.28,14s-12.69,1.24-15.9-3.62c-.36-.55-.66-1.11-.89-1.69,4.15,3.95,10.32,5.25,15.04,2.83Z"/>
      <path class="cls-23" d="M268.88,206.23l8.42,4.38v16.69c0,13.79-14.15,24.98-31.59,24.98h-83.77c-17.45,0-31.59-11.18-31.59-24.98v-15.78l10.13-5.27v-39.05l-10.13-5.27v-7.74c0-13.79,14.15-24.98,31.59-24.98h83.77c17.45,0,31.59,11.18,31.59,24.98v8.61l-.39.2h0l-8.03,4.18v39.05Z"/>
      <path class="cls-17" d="M277.3,210.61v.13c-18.08,2.6-45.82,4.26-76.91,4.26-27.39,0-52.16-1.29-70.04-3.37v-.11l10.13-5.27v-11.71c16.61-1.47,37.38-2.34,59.9-2.34,26.61,0,50.75,1.22,68.49,3.19v10.84l8.42,4.38Z"/>
      <path class="cls-17" d="M276.9,163.01l-8.03,4.18v10.75c-17.89,2.1-42.78,3.4-70.3,3.4-21.72,0-41.8-.81-58.09-2.19v-11.95l-10.13-5.27v-.24c17.71-1.96,41.75-3.16,68.23-3.16,31.92,0,60.3,1.75,78.33,4.47Z"/>
      <rect class="cls-19" x="140.48" y="167.22" width="128.49" height="39.09"/>
      <path class="cls-18" d="M161.11,164v46.33c-1.69-.07-3.38-.13-5.07-.2-4.1-.17-8.21-.36-12.31-.58v-46.33c4.1.21,8.21.41,12.31.58,1.69.07,3.38.13,5.07.2Z"/>
      <path class="cls-16" d="M249.37,163.98v46.33c1.63-.07,3.25-.13,4.87-.2,3.94-.17,7.89-.36,11.84-.58v-46.33c-3.94.21-7.89.41-11.84.58-1.63.07-3.25.13-4.87.2Z"/>
      <rect class="cls-21" x="322.18" y="162.52" width="7.96" height="48.14" rx="3.92" ry="3.92"/>
      <rect class="cls-21" x="73.16" y="162.52" width="7.96" height="48.14" rx="3.92" ry="3.92"/>
      <path class="cls-25" d="M174.87,135.41c-9.98.95-20.4,3.94-29.39,9-4.71,3.12-8.26,6.75-10.76,10.68.07-.7.15-1.4.26-2.12,1.86-12.47,15.44-21.55,30.32-20.29,4.01.34,7.21,1.3,9.57,2.74Z"/>
      <path class="cls-25" d="M23.93,175.1c-4.98.7-10.17,2.88-14.66,6.59-2.35,2.28-4.12,4.94-5.37,7.82.03-.51.08-1.03.13-1.55.93-9.13,7.7-15.78,15.13-14.86,2,.25,3.6.95,4.77,2Z"/>
      <path class="cls-25" d="M28.75,204.89c1.83,1.87,4.61,3.25,8.09,3.72,2.03.11,4.11-.17,6.17-.76-.31.19-.63.37-.96.56-5.69,3.19-11.57,2.89-13.14-.67-.42-.96-.46-1.92-.17-2.84Z"/>
      <circle class="cls-3" cx="231.15" cy="87.77" r="20.09"/>
      <path class="cls-25" d="M384.2,175.37c4.65.7,9.5,2.88,13.69,6.59,2.19,2.28,3.85,4.94,5.01,7.82-.03-.51-.07-1.03-.12-1.55-.87-9.13-7.19-15.78-14.12-14.86-1.87.25-3.36.95-4.46,2Z"/>
      <path class="cls-25" d="M379.7,205.16c-1.71,1.87-4.31,3.25-7.56,3.72-1.89.11-3.84-.17-5.77-.76.29.19.59.37.9.56,5.31,3.19,10.8,2.89,12.27-.67.39-.96.43-1.92.16-2.84Z"/>
      <g>
        <circle class="cls-14" cx="230.98" cy="87.7" r="16.18"/>
        <g class="cls-10">
          <g>
            <path class="cls-14" d="M225.49,68.3c14.7,9.5,28.41,20.51,40.86,32.8"/>
            <path class="cls-5" d="M224.4,70.18c14.54,9.47,28.03,20.31,40.42,32.46,2,1.96,5.07-1.11,3.07-3.07-12.65-12.4-26.46-23.48-41.3-33.14-2.35-1.53-4.53,2.23-2.19,3.75h0Z"/>
          </g>
          <g>
            <path class="cls-14" d="M229.96,69.37c8.16,3.38,15.91,7.73,23.04,12.93"/>
            <path class="cls-5" d="M228.86,71.24c8.17,3.45,15.84,7.76,23.04,12.93,2.27,1.63,4.44-2.13,2.19-3.75-7.2-5.17-14.87-9.48-23.04-12.93-2.54-1.08-4.76,2.66-2.19,3.75h0Z"/>
          </g>
          <g>
            <path class="cls-14" d="M215.28,66.92c13.33,11.3,27.09,22.09,41.25,32.33"/>
            <path class="cls-5" d="M213.74,68.45c13.49,11.41,27.39,22.3,41.69,32.67,2.27,1.64,4.44-2.12,2.19-3.75-14-10.16-27.6-20.82-40.81-31.99-2.12-1.79-5.21,1.26-3.07,3.07h0Z"/>
          </g>
          <g>
            <path class="cls-14" d="M216.19,78.09c19.08,16.11,38.7,31.57,58.83,46.35"/>
            <path class="cls-5" d="M215.42,78.86c19.17,16.15,38.86,31.67,59.05,46.52,1.13.83,2.21-1.05,1.1-1.88-20.04-14.75-39.58-30.15-58.61-46.18-1.06-.9-2.61.63-1.54,1.54h0Z"/>
          </g>
        </g>
      </g>
    </g>
  </g>
</svg>