<?xml version="1.0" encoding="UTF-8"?>
<svg id="Layer_2" data-name="Layer 2" xmlns="http://www.w3.org/2000/svg" xmlns:xlink="http://www.w3.org/1999/xlink" viewBox="0 0 196.69 101.09">
  <defs>
    <style>
      .cls-1 {
        fill: #fff;
      }

      .cls-2 {
        fill: none;
        stroke: #fff;
        stroke-miterlimit: 10;
        stroke-width: 2.82px;
      }

      .cls-3 {
        clip-path: url(#clippath);
      }

      .cls-4 {
        fill: #c90000;
      }
    </style>
    <clipPath id="clippath">
      <rect class="cls-4" x="7.92" y="5.68" width="182" height="88.44" rx="17.47" ry="17.47"/>
    </clipPath>
  </defs>
  <g id="Layer_1-2" data-name="Layer 1">
    <g>
      <g>
        <path class="cls-4" d="M174.53,99.68H22.16c-10.36,0-19.49-8.41-20.01-18.8-.98-20.21-.98-40.45,0-60.66C2.67,9.82,11.8,1.41,22.16,1.41c50.79,0,101.58,0,152.38,0,10.36,0,19.49,8.41,20.01,18.8.98,20.21.98,40.45,0,60.66-.53,10.39-9.66,18.8-20.01,18.8Z"/>
        <path class="cls-2" d="M174.53,99.68H22.16c-10.36,0-19.49-8.41-20.01-18.8-.98-20.21-.98-40.45,0-60.66C2.67,9.82,11.8,1.41,22.16,1.41c50.79,0,101.58,0,152.38,0,10.36,0,19.49,8.41,20.01,18.8.98,20.21.98,40.45,0,60.66-.53,10.39-9.66,18.8-20.01,18.8Z"/>
      </g>
      <g>
        <rect class="cls-4" x="7.92" y="5.68" width="182" height="88.44" rx="17.47" ry="17.47"/>
        <g class="cls-3">
          <g>
            <path class="cls-4" d="M-11.7,33.51C1.77,27.56-6.27,18.06,5.58,11.69c9.55-5.14,28.56-6.54,45.59-7.5C87.86,2.11,124.55.04,161.24-2.03"/>
            <path class="cls-1" d="M-7.36,40.94c6.37-3.07,10.49-7.84,12.77-14.49,1.37-3.99,1.3-5.98,5.59-7.91,5.95-2.67,13.09-3.48,19.51-4.19,7.84-.86,15.73-1.3,23.6-1.74,35.71-2.02,71.42-4.03,107.12-6.05,11.01-.62,11.08-17.83,0-17.21-36.98,2.09-73.95,4.14-110.93,6.26-14.62.84-30.65,1.13-44.44,6.55C-.63,4.74-6.08,8.66-8.91,15.24c-2.33,5.41-1.65,8.21-7.14,10.85-9.97,4.8-1.26,19.65,8.68,14.86h0Z"/>
          </g>
        </g>
      </g>
    </g>
  </g>
</svg>