<?xml version="1.0" encoding="UTF-8"?>
<svg id="Layer_2" data-name="Layer 2" xmlns="http://www.w3.org/2000/svg" viewBox="0 0 44.92 44.92">
  <defs>
    <style>
      .cls-1 {
        stroke: #fff;
        stroke-miterlimit: 10;
        stroke-width: 1.8px;
      }
    </style>
  </defs>
  <g id="Layer_1-2" data-name="Layer 1">
    <path class="cls-1" d="M41.04,17.74h0c-2.65,0-3.98-3.21-2.11-5.09h0c1.16-1.16,1.16-3.05,0-4.21l-2.46-2.46c-1.16-1.16-3.05-1.16-4.21,0h0c-1.88,1.88-5.09.55-5.09-2.11,0-1.65-1.33-2.98-2.98-2.98h-3.47c-1.65,0-2.98,1.33-2.98,2.98,0,2.65-3.21,3.98-5.09,2.11h0c-1.16-1.16-3.05-1.16-4.21,0l-2.46,2.46c-1.16,1.16-1.16,3.05,0,4.21h0c1.88,1.88.55,5.09-2.11,5.09h0c-1.65,0-2.98,1.33-2.98,2.98v3.47c0,1.65,1.33,2.98,2.98,2.98h0c2.65,0,3.98,3.21,2.11,5.09h0c-1.16,1.16-1.16,3.05,0,4.21l2.46,2.46c1.16,1.16,3.05,1.16,4.21,0h0c1.88-1.88,5.09-.55,5.09,2.11h0c0,1.65,1.33,2.98,2.98,2.98h3.47c1.65,0,2.98-1.33,2.98-2.98h0c0-2.66,3.21-3.98,5.09-2.11h0c1.16,1.16,3.05,1.16,4.21,0l2.46-2.46c1.16-1.16,1.16-3.05,0-4.21h0c-1.88-1.88-.55-5.09,2.11-5.09h0c1.65,0,2.98-1.33,2.98-2.98v-3.47c0-1.65-1.33-2.98-2.98-2.98ZM22.68,30.1c-4.09,0-7.41-3.32-7.41-7.41s3.32-7.41,7.41-7.41,7.41,3.32,7.41,7.41-3.32,7.41-7.41,7.41Z"/>
  </g>
</svg>