<?xml version="1.0" encoding="UTF-8"?>
<svg id="Layer_2" data-name="Layer 2" xmlns="http://www.w3.org/2000/svg" viewBox="0 0 85.41 85.41">
  <defs>
    <style>
      .cls-1 {
        fill: #fff;
      }
    </style>
  </defs>
  <g id="Layer_1-2" data-name="Layer 1">
    <path class="cls-1" d="M79.51,33.36h0c-5.26,0-7.89-6.36-4.17-10.08h0c2.31-2.31,2.31-6.04,0-8.35l-4.86-4.86c-2.31-2.31-6.04-2.31-8.35,0h0c-3.72,3.72-10.08,1.08-10.08-4.17,0-3.26-2.64-5.9-5.9-5.9h-6.88c-3.26,0-5.9,2.64-5.9,5.9,0,5.26-6.36,7.89-10.08,4.17h0c-2.31-2.31-6.04-2.31-8.35,0l-4.86,4.86c-2.31,2.31-2.31,6.04,0,8.35h0c3.72,3.72,1.08,10.08-4.17,10.08h0c-3.26,0-5.9,2.64-5.9,5.9v6.88c0,3.26,2.64,5.9,5.9,5.9h0c5.26,0,7.89,6.36,4.17,10.08h0c-2.31,2.31-2.31,6.04,0,8.35l4.86,4.86c2.31,2.31,6.04,2.31,8.35,0h0c3.72-3.72,10.08-1.08,10.08,4.17h0c0,3.26,2.64,5.9,5.9,5.9h6.88c3.26,0,5.9-2.64,5.9-5.9h0c0-5.26,6.36-7.89,10.08-4.17h0c2.31,2.31,6.04,2.31,8.35,0l4.86-4.86c2.31-2.31,2.31-6.04,0-8.35h0c-3.72-3.72-1.08-10.08,4.17-10.08h0c3.26,0,5.9-2.64,5.9-5.9v-6.88c0-3.26-2.64-5.9-5.9-5.9ZM43.15,57.83c-8.11,0-14.68-6.57-14.68-14.68s6.57-14.68,14.68-14.68,14.68,6.57,14.68,14.68-6.57,14.68-14.68,14.68Z"/>
  </g>
</svg>