<?xml version="1.0" encoding="UTF-8"?>
<svg id="Layer_2" data-name="Layer 2" xmlns="http://www.w3.org/2000/svg" xmlns:xlink="http://www.w3.org/1999/xlink" viewBox="0 0 171.55 151.29">
  <defs>
    <style>
      .cls-1 {
        fill: none;
        stroke: #fff;
        stroke-miterlimit: 10;
        stroke-width: 3.2px;
      }

      .cls-2 {
        fill: #fff;
      }

      .cls-3 {
        fill: #160075;
      }

      .cls-4 {
        clip-path: url(#clippath);
      }
    </style>
    <clipPath id="clippath">
      <rect class="cls-3" x="8.43" y="8.04" width="155.68" height="133.28" rx="19.84" ry="19.84"/>
    </clipPath>
  </defs>
  <g id="Layer_1-2" data-name="Layer 1">
    <g>
      <g>
        <path class="cls-3" d="M145.68,149.69H25.87c-11.75,0-22.11-9.55-22.8-21.34-1.96-35.11-1.96-70.3,0-105.4C3.77,11.15,14.13,1.6,25.87,1.6h119.8c11.75,0,22.11,9.55,22.8,21.34,1.96,35.11,1.96,70.3,0,105.4-.7,11.8-11.05,21.34-22.8,21.34Z"/>
        <path class="cls-1" d="M145.68,149.69H25.87c-11.75,0-22.11-9.55-22.8-21.34-1.96-35.11-1.96-70.3,0-105.4C3.77,11.15,14.13,1.6,25.87,1.6h119.8c11.75,0,22.11,9.55,22.8,21.34,1.96,35.11,1.96,70.3,0,105.4-.7,11.8-11.05,21.34-22.8,21.34Z"/>
      </g>
      <g>
        <rect class="cls-3" x="8.43" y="8.04" width="155.68" height="133.28" rx="19.84" ry="19.84"/>
        <g class="cls-4">
          <g>
            <path class="cls-3" d="M-8.36,49.98C3.17,41.02-3.71,26.7,6.42,17.09,14.6,9.33,30.85,7.23,45.42,5.78,76.81,2.66,108.19-.46,139.58-3.58"/>
            <path class="cls-2" d="M-1.45,56.89c5.13-4.31,8.27-10.25,9.72-16.75.99-4.43.95-9.73,3.18-13.75s7.41-5.89,11.76-7.14c5.96-1.72,12.12-2.63,18.27-3.3,32.66-3.56,65.4-6.52,98.09-9.77,5.25-.52,9.77-4.12,9.77-9.77,0-4.88-4.49-10.29-9.77-9.77-34.26,3.41-68.71,6-102.86,10.33C23.51-1.34,8.05.94-1.51,11.23c-4.51,4.85-6.78,11.01-7.93,17.42-1,5.59-1.26,10.59-5.83,14.43-4.04,3.4-3.5,10.31,0,13.81,4,4,9.76,3.41,13.81,0h0Z"/>
          </g>
        </g>
      </g>
    </g>
  </g>
</svg>