<?xml version="1.0" encoding="UTF-8"?>
<svg id="Layer_2" data-name="Layer 2" xmlns="http://www.w3.org/2000/svg" xmlns:xlink="http://www.w3.org/1999/xlink" viewBox="0 0 178.34 158.09">
  <defs>
    <style>
      .cls-1 {
        fill: #fff;
      }

      .cls-2 {
        fill: none;
        stroke: #fff;
        stroke-miterlimit: 10;
        stroke-width: 3.2px;
      }

      .cls-3 {
        fill: #160075;
      }

      .cls-4 {
        clip-path: url(#clippath);
      }
    </style>
    <clipPath id="clippath">
      <rect class="cls-3" x="11.82" y="11.44" width="155.68" height="133.28" rx="19.84" ry="19.84"/>
    </clipPath>
  </defs>
  <g id="Layer_1-2" data-name="Layer 1">
    <g>
      <g>
        <path class="cls-3" d="M29.27,155.59c-13.18,0-24.53-10.63-25.3-23.7-1.96-35.07-1.96-70.63,0-105.69C4.74,13.13,16.09,2.5,29.27,2.5h119.8c13.18,0,24.53,10.63,25.3,23.7,1.96,35.07,1.96,70.63,0,105.69-.77,13.07-12.12,23.71-25.3,23.71H29.27Z"/>
        <path class="cls-1" d="M149.07,5c11.75,0,22.11,9.55,22.8,21.34,1.96,35.11,1.96,70.3,0,105.4-.7,11.8-11.05,21.34-22.8,21.34H29.27c-11.75,0-22.11-9.55-22.8-21.34-1.96-35.11-1.96-70.3,0-105.4.7-11.8,11.05-21.35,22.8-21.34h119.8M149.07,0H29.27C14.79,0,2.32,11.69,1.48,26.05c-1.97,35.17-1.97,70.82,0,105.98.85,14.38,13.32,26.07,27.79,26.07h119.8c14.48,0,26.95-11.69,27.79-26.05,1.97-35.17,1.97-70.82,0-105.98C176.02,11.69,163.55,0,149.07,0h0Z"/>
        <path class="cls-2" d="M149.07,153.09H29.27c-11.75,0-22.11-9.55-22.8-21.34-1.96-35.11-1.96-70.3,0-105.4.7-11.8,11.05-21.35,22.8-21.34h119.8c11.75,0,22.11,9.55,22.8,21.34,1.96,35.11,1.96,70.3,0,105.4-.7,11.8-11.05,21.34-22.8,21.34Z"/>
      </g>
      <g>
        <rect class="cls-3" x="11.82" y="11.44" width="155.68" height="133.28" rx="19.84" ry="19.84"/>
        <g class="cls-4">
          <g>
            <path class="cls-3" d="M-4.96,53.38C6.56,44.42-.32,30.1,9.82,20.49c8.17-7.75,24.43-9.86,39-11.3C80.2,6.06,111.59,2.94,142.97-.18"/>
            <path class="cls-1" d="M1.94,60.29c5.13-4.31,8.27-10.25,9.72-16.75.99-4.43.95-9.73,3.18-13.75s7.41-5.89,11.76-7.14c5.96-1.72,12.12-2.63,18.27-3.3,32.66-3.56,65.4-6.52,98.09-9.77,5.25-.52,9.77-4.12,9.77-9.77,0-4.88-4.49-10.29-9.77-9.77C108.71-6.54,74.26-3.95,40.11.38,26.9,2.06,11.45,4.34,1.89,14.63c-4.51,4.85-6.78,11.01-7.93,17.42-1,5.59-1.26,10.59-5.83,14.43-4.04,3.4-3.5,10.31,0,13.81,4,4,9.76,3.41,13.81,0h0Z"/>
          </g>
        </g>
      </g>
    </g>
  </g>
</svg>