<?xml version="1.0" encoding="UTF-8"?>
<svg id="Layer_2" data-name="Layer 2" xmlns="http://www.w3.org/2000/svg" xmlns:xlink="http://www.w3.org/1999/xlink" viewBox="0 0 92.71 85.2">
  <defs>
    <style>
      .cls-1 {
        fill: #fff;
      }
    </style>
    <symbol id="restart_2" data-name="restart 2" viewBox="0 0 195.86 180">
      <path class="cls-1" d="M195.85,88.72C195.16,39.16,153.88-.81,104.32.01c-25.25.42-47.96,11.25-64.05,28.37L7.01,18.51c-4.22-1.25-8.11,2.75-6.73,6.93l28.03,85.18c1.19,3.62,5.62,4.93,8.59,2.55l69.96-56.1c3.43-2.75,2.36-8.23-1.86-9.48l-32.71-9.71c10.46-6.75,23.07-10.45,36.59-9.81,31.72,1.51,57.45,27.27,58.91,58.99,1.64,35.58-26.72,64.94-61.93,64.94-13.84,0-26.61-4.56-36.93-12.23-.21-.25-.43-.49-.68-.7l-5.68-4.8c-2.39-2.02-5.96-1.72-7.99.67l-10.94,12.93c-2.02,2.39-1.72,5.96.67,7.99l5.68,4.8c.3.26.62.47.96.65,15.19,11.72,34.23,18.69,54.9,18.69,50.13,0,90.69-40.99,89.99-91.28Z"/>
    </symbol>
  </defs>
  <g id="Layer_1-2" data-name="Layer 1">
    <use width="195.86" height="180" transform="scale(.47)" xlink:href="#restart_2"/>
  </g>
</svg>