<?xml version="1.0" encoding="UTF-8"?>
<svg id="Layer_2" data-name="Layer 2" xmlns="http://www.w3.org/2000/svg" xmlns:xlink="http://www.w3.org/1999/xlink" viewBox="0 0 221.13 118.03">
  <defs>
    <style>
      .cls-1 {
        fill: url(#linear-gradient-2);
      }

      .cls-2 {
        fill: #fff;
      }

      .cls-3 {
        fill: none;
        stroke: #fff;
        stroke-miterlimit: 10;
        stroke-width: 5px;
      }

      .cls-4 {
        fill: url(#linear-gradient-4);
      }

      .cls-5 {
        fill: url(#linear-gradient-3);
      }

      .cls-6 {
        fill: url(#linear-gradient-5);
      }

      .cls-7 {
        fill: url(#linear-gradient);
      }

      .cls-8 {
        clip-path: url(#clippath);
      }
    </style>
    <linearGradient id="linear-gradient" x1="7.94" y1="46.35" x2="214.22" y2="46.35" gradientUnits="userSpaceOnUse">
      <stop offset="0" stop-color="#00ba07"/>
      <stop offset="1" stop-color="#008327"/>
    </linearGradient>
    <linearGradient id="linear-gradient-2" x1="75.83" y1="-16.2" x2="147.45" y2="107.85" gradientUnits="userSpaceOnUse">
      <stop offset="0" stop-color="#bdff00"/>
      <stop offset="1" stop-color="#27d400"/>
    </linearGradient>
    <clipPath id="clippath">
      <rect class="cls-1" x="15.33" y="12.91" width="192.62" height="65.83" rx="13.77" ry="13.77"/>
    </clipPath>
    <linearGradient id="linear-gradient-3" x1="5.72" y1="23.21" x2="98.06" y2="23.21" xlink:href="#linear-gradient-2"/>
    <linearGradient id="linear-gradient-4" x1="194.48" y1="112.11" x2="194.73" y2="112.11" xlink:href="#linear-gradient-2"/>
    <linearGradient id="linear-gradient-5" x1="179.03" y1="69.63" x2="215.34" y2="69.63" xlink:href="#linear-gradient-2"/>
  </defs>
  <g id="Layer_1-2" data-name="Layer 1">
    <g>
      <g>
        <path class="cls-7" d="M200.25,84.74l-175.56,4.72c-7.72.21-14.24-6.51-14.57-15l-2.18-56.21c-.33-8.49,5.76-15.22,13.61-15.02l178.46,4.5c7.84.2,14.2,6.4,14.2,13.85v49.3c0,7.45-6.25,13.66-13.97,13.86Z"/>
        <path class="cls-3" d="M200.25,84.74l-175.56,4.72c-7.72.21-14.24-6.51-14.57-15l-2.18-56.21c-.33-8.49,5.76-15.22,13.61-15.02l178.46,4.5c7.84.2,14.2,6.4,14.2,13.85v49.3c0,7.45-6.25,13.66-13.97,13.86Z"/>
      </g>
      <g>
        <rect class="cls-1" x="15.33" y="12.91" width="192.62" height="65.83" rx="13.77" ry="13.77"/>
        <g class="cls-8">
          <g>
            <path class="cls-5" d="M5.72,40.39c1.96.84,4.21-.82,4.98-2.8.77-1.98.57-4.19.75-6.31.69-7.99,7.07-14.58,14.39-17.86s15.52-3.85,23.53-4.38c16.23-1.08,32.46-2.15,48.69-3.23"/>
            <path class="cls-2" d="M4.18,45.98c3.87.72,7.32-.08,9.99-3.16,3.14-3.62,2.38-7.83,3.2-12.15,1.6-8.43,10.63-12.63,18.14-14.26,9.54-2.08,19.72-1.97,29.44-2.61,11.04-.73,22.07-1.46,33.11-2.19,7.4-.49,7.46-12.08,0-11.59-20.34,1.35-41.23,1.47-61.4,4.47-8.32,1.24-16.4,4.11-22.63,9.95-2.76,2.59-5.02,5.75-6.51,9.23-.76,1.78-1.28,3.54-1.59,5.45-.16.99-.25,1.97-.33,2.97-.15,2.01-.65,2.3,1.65,2.72-7.29-1.35-10.41,9.81-3.08,11.17h0Z"/>
          </g>
          <g>
            <path class="cls-4" d="M194.73,112.24l-.25-.25"/>
            <path class="cls-2" d="M198.83,108.14l-.25-.25c-.52-.56-1.15-.96-1.86-1.2-.69-.36-1.43-.53-2.23-.5-.8-.03-1.54.14-2.23.5-.72.23-1.34.63-1.86,1.2l-.91,1.17c-.52.9-.79,1.88-.79,2.92l.21,1.54c.28.98.77,1.83,1.49,2.56l.25.25c.52.56,1.15.96,1.86,1.2.69.36,1.43.53,2.23.5.8.03,1.54-.14,2.23-.5.72-.23,1.34-.63,1.86-1.2l.91-1.17c.52-.9.79-1.88.79-2.92l-.21-1.54c-.28-.98-.77-1.83-1.49-2.56h0Z"/>
          </g>
          <g>
            <path class="cls-6" d="M179.03,83.7c5.18.08,10.41.15,15.5-.81s10.11-3.02,13.78-6.69c5.29-5.29,7.09-13.2,7.03-20.68"/>
            <path class="cls-2" d="M179.03,89.49c11.03.15,22.72-.3,31.63-7.66,7.79-6.44,10.38-16.58,10.47-26.31.07-7.46-11.52-7.46-11.59,0-.06,6.66-1.39,13.93-7.13,18.1-6.63,4.82-15.61,4.39-23.38,4.29s-7.46,11.48,0,11.59h0Z"/>
          </g>
        </g>
      </g>
    </g>
  </g>
</svg>