<?xml version="1.0" encoding="UTF-8"?>
<svg id="Layer_2" data-name="Layer 2" xmlns="http://www.w3.org/2000/svg" viewBox="0 0 67 30">
  <defs>
    <style>
      .cls-1 {
        fill: #fff;
      }
    </style>
  </defs>
  <g id="Layer_1-2" data-name="Layer 1">
    <path class="cls-1" d="M60.18,3c2.11,0,3.82,1.71,3.82,3.82v16.36c0,2.11-1.71,3.82-3.82,3.82H6.82c-2.11,0-3.82-1.71-3.82-3.82V6.82c0-2.11,1.71-3.82,3.82-3.82h53.36M60.18,0H6.82C3.05,0,0,3.05,0,6.82v16.36c0,3.77,3.05,6.82,6.82,6.82h53.36c3.77,0,6.82-3.05,6.82-6.82V6.82c0-3.77-3.05-6.82-6.82-6.82h0Z"/>
  </g>
</svg>