<?xml version="1.0" encoding="UTF-8"?>
<svg id="Layer_2" data-name="Layer 2" xmlns="http://www.w3.org/2000/svg" xmlns:xlink="http://www.w3.org/1999/xlink" viewBox="0 0 173.11 112.79">
  <defs>
    <style>
      .cls-1 {
        fill: #fff;
      }

      .cls-2 {
        fill: #007a13;
      }

      .cls-3 {
        fill: none;
        stroke: #fff;
        stroke-miterlimit: 10;
        stroke-width: 2.79px;
      }

      .cls-4 {
        fill: url(#linear-gradient);
      }

      .cls-5 {
        clip-path: url(#clippath);
      }
    </style>
    <linearGradient id="linear-gradient" x1="271.37" y1="2.7" x2="271.37" y2="137.09" gradientTransform="translate(-84.04 3.98) scale(.63 .74)" gradientUnits="userSpaceOnUse">
      <stop offset=".3" stop-color="#17e900"/>
      <stop offset=".74" stop-color="#18bf00"/>
    </linearGradient>
    <clipPath id="clippath">
      <rect class="cls-4" x="7.55" y="5.97" width="159" height="99" rx="17.28" ry="17.28"/>
    </clipPath>
  </defs>
  <g id="Layer_1-2" data-name="Layer 1">
    <g>
      <path class="cls-2" d="M150.95,111.39H22.16c-10.24,0-19.26-8.32-19.82-18.59-1.26-24.25-1.26-48.56,0-72.81C2.9,9.71,11.92,1.39,22.16,1.39h128.78c10.24,0,19.26,8.32,19.82,18.59,1.26,24.25,1.26,48.56,0,72.81-.56,10.28-9.59,18.59-19.82,18.59Z"/>
      <path class="cls-3" d="M150.95,111.39H22.16c-10.24,0-19.26-8.32-19.82-18.59-1.26-24.25-1.26-48.56,0-72.81C2.9,9.71,11.92,1.39,22.16,1.39h128.78c10.24,0,19.26,8.32,19.82,18.59,1.26,24.25,1.26,48.56,0,72.81-.56,10.28-9.59,18.59-19.82,18.59Z"/>
    </g>
    <g>
      <rect class="cls-4" x="7.55" y="5.97" width="159" height="99" rx="17.28" ry="17.28"/>
      <g class="cls-5">
        <path class="cls-1" d="M-5.29,44.47c5.6-3.47,9.34-8.09,11.29-14.4,1.13-3.67,1.06-7.85,4.29-10.35,4.19-3.24,10.69-4.06,15.74-4.92,6.38-1.09,12.87-1.53,19.32-2,32.05-2.35,64.11-4.64,96.16-6.96,10.86-.79,10.94-17.81,0-17.01-33.16,2.4-66.34,4.62-99.49,7.2C29.16-2.96,14.76-2.2,3.2,4.13c-5.74,3.14-9.78,8.14-11.79,14.32-1.41,4.31-1.11,8.74-5.29,11.32-9.29,5.76-.76,20.48,8.59,14.69h0Z"/>
      </g>
    </g>
  </g>
</svg>