<?xml version="1.0" encoding="UTF-8"?>
<svg id="Layer_2" data-name="Layer 2" xmlns="http://www.w3.org/2000/svg" xmlns:xlink="http://www.w3.org/1999/xlink" viewBox="0 0 193.6 126.59">
  <defs>
    <style>
      .cls-1 {
        fill: #fff;
      }

      .cls-2 {
        fill: #007a13;
      }

      .cls-3 {
        fill: none;
        stroke: #fff;
        stroke-miterlimit: 10;
        stroke-width: 2.79px;
      }

      .cls-4 {
        fill: url(#linear-gradient);
      }

      .cls-5 {
        clip-path: url(#clippath);
      }
    </style>
    <linearGradient id="linear-gradient" x1="289.26" y1="13.9" x2="289.26" y2="148.29" gradientTransform="translate(-77.43 6.93) scale(.63 .74)" gradientUnits="userSpaceOnUse">
      <stop offset=".3" stop-color="#17e900"/>
      <stop offset=".74" stop-color="#18bf00"/>
    </linearGradient>
    <clipPath id="clippath">
      <rect class="cls-4" x="25.44" y="17.17" width="159" height="99" rx="17.28" ry="17.28"/>
    </clipPath>
  </defs>
  <g id="Layer_1-2" data-name="Layer 1">
    <g>
      <path class="cls-2" d="M40.05,124.59c-11.42,0-21.21-9.19-21.82-20.48-1.26-24.23-1.26-48.8,0-73.03.62-11.3,10.4-20.49,21.82-20.49h128.78c11.42,0,21.21,9.19,21.82,20.48,1.26,24.23,1.26,48.8,0,73.03-.61,11.3-10.4,20.49-21.82,20.49H40.05Z"/>
      <path class="cls-1" d="M168.83,12.59c10.24,0,19.26,8.32,19.82,18.59,1.26,24.25,1.26,48.56,0,72.81-.56,10.28-9.59,18.59-19.82,18.59H40.05c-10.24,0-19.26-8.32-19.82-18.59-1.26-24.25-1.26-48.56,0-72.81.56-10.28,9.59-18.59,19.82-18.59h128.78M168.83,8.59H40.05c-12.46,0-23.15,10.04-23.82,22.38-1.26,24.31-1.26,48.95,0,73.24.67,12.35,11.36,22.39,23.82,22.39h128.78c12.46,0,23.15-10.04,23.82-22.38,1.26-24.31,1.26-48.95,0-73.24-.67-12.35-11.36-22.39-23.82-22.39h0Z"/>
      <path class="cls-3" d="M168.83,122.59H40.05c-10.24,0-19.26-8.32-19.82-18.59-1.26-24.25-1.26-48.56,0-72.81.56-10.28,9.59-18.59,19.82-18.59h128.78c10.24,0,19.26,8.32,19.82,18.59,1.26,24.25,1.26,48.56,0,72.81-.56,10.28-9.59,18.59-19.82,18.59Z"/>
    </g>
    <g>
      <rect class="cls-4" x="25.44" y="17.17" width="159" height="99" rx="17.28" ry="17.28"/>
      <g class="cls-5">
        <path class="cls-1" d="M12.6,55.67c5.6-3.47,9.34-8.09,11.29-14.4,1.13-3.67,1.06-7.85,4.29-10.35,4.19-3.24,10.69-4.06,15.74-4.92,6.38-1.09,12.87-1.53,19.32-2,32.05-2.35,64.11-4.64,96.16-6.96,10.86-.79,10.94-17.81,0-17.01-33.16,2.4-66.34,4.62-99.49,7.2-12.85,1-27.25,1.77-38.81,8.1-5.74,3.14-9.78,8.14-11.79,14.32-1.41,4.31-1.11,8.74-5.29,11.32-9.29,5.76-.76,20.48,8.59,14.69h0Z"/>
      </g>
    </g>
  </g>
</svg>