<?xml version="1.0" encoding="UTF-8"?>
<svg id="Layer_2" data-name="Layer 2" xmlns="http://www.w3.org/2000/svg" xmlns:xlink="http://www.w3.org/1999/xlink" viewBox="0 0 50.49 48.33">
  <defs>
    <style>
      .cls-1 {
        fill: url(#radial-gradient);
        stroke: url(#linear-gradient);
        stroke-miterlimit: 10;
        stroke-width: 1.9px;
      }
    </style>
    <radialGradient id="radial-gradient" cx="26" cy="18.34" fx="-1.41" fy="-33" r="81.47" gradientTransform="translate(0 -.18)" gradientUnits="userSpaceOnUse">
      <stop offset=".35" stop-color="#eeffd4"/>
      <stop offset=".48" stop-color="#b7ff6a"/>
      <stop offset=".5" stop-color="#197f01"/>
      <stop offset=".57" stop-color="#199d01"/>
    </radialGradient>
    <linearGradient id="linear-gradient" x1="-.32" y1="24.12" x2="50.81" y2="24.12" gradientUnits="userSpaceOnUse">
      <stop offset=".24" stop-color="#046d03"/>
      <stop offset="1" stop-color="#45e900"/>
    </linearGradient>
  </defs>
  <g id="Layer_1-2" data-name="Layer 1">
    <path class="cls-1" d="M27.3,1.47c2.21,2.89,4.73,6.89,7.16,11.3.24.44.68.76,1.16.85,4.89.95,9.42,2.02,12.83,3.12,1.38.47,1.82,2.73.96,3.98-2.18,3.08-5.01,6.66-8.35,10.32-.33.36-.5.86-.45,1.34.52,4.82.82,9.25.96,13.04.06,1.58-2.03,2.64-3.55,2.02-3.71-1.47-7.71-2.94-12.09-4.8-.43-.18-.95-.18-1.39,0-4.38,1.86-8.38,3.34-12.09,4.8-1.52.62-3.61-.45-3.55-2.02.13-3.79.44-8.22.96-13.04.05-.48-.12-.98-.45-1.34-3.34-3.66-6.17-7.24-8.35-10.32-.87-1.25-.43-3.51.96-3.98,3.41-1.1,7.94-2.17,12.83-3.12.49-.09.92-.41,1.16-.85,2.44-4.41,4.95-8.4,7.16-11.3.91-1.15,3.21-1.15,4.12,0Z"/>
  </g>
</svg>