<?xml version="1.0" encoding="UTF-8"?>
<svg id="Layer_2" data-name="Layer 2" xmlns="http://www.w3.org/2000/svg" viewBox="0 0 48.79 45.06">
  <defs>
    <style>
      .cls-1 {
        fill: #fff;
        stroke: #000;
        stroke-miterlimit: 10;
        stroke-width: 1.8px;
      }
    </style>
  </defs>
  <g id="Layer_1-2" data-name="Layer 1">
    <path class="cls-1" d="M26.34,1.37c2.16,2.71,4.63,6.47,7.02,10.61.24.41.64.7,1.1.78,4.73.88,9.11,1.88,12.41,2.9,1.33.43,1.75,2.63.89,3.81-2.09,2.83-4.79,6.11-7.99,9.46-.33.35-.5.84-.45,1.31.5,4.45.8,8.54.93,12.04.06,1.49-1.9,2.51-3.35,1.95-3.64-1.38-7.57-2.76-11.87-4.52-.4-.16-.87-.16-1.27,0-4.31,1.75-8.24,3.13-11.87,4.52-1.45.56-3.41-.46-3.35-1.95.14-3.51.43-7.6.93-12.04.05-.47-.11-.96-.45-1.31-3.19-3.35-5.89-6.63-7.99-9.46-.85-1.18-.44-3.38.89-3.81,3.3-1.02,7.67-2.02,12.41-2.9.46-.08.87-.38,1.1-.78,2.39-4.14,4.86-7.9,7.02-10.61.87-1.06,3-1.06,3.88,0Z"/>
  </g>
</svg>