<?xml version="1.0" encoding="UTF-8"?>
<svg id="Layer_2" data-name="Layer 2" xmlns="http://www.w3.org/2000/svg" xmlns:xlink="http://www.w3.org/1999/xlink" viewBox="0 0 174.96 194.01">
  <defs>
    <style>
      .cls-1 {
        fill: url(#radial-gradient);
      }

      .cls-2 {
        fill: url(#linear-gradient);
      }
    </style>
    <linearGradient id="linear-gradient" x1="87.48" y1="160.13" x2="87.48" y2="-42.86" gradientTransform="translate(0 40.96) scale(1 .96)" gradientUnits="userSpaceOnUse">
      <stop offset="0" stop-color="#603dd4"/>
      <stop offset="1" stop-color="#3714a9"/>
    </linearGradient>
    <radialGradient id="radial-gradient" cx="87.78" cy="96.96" fx="87.78" fy="-8.03" r="180.5" gradientUnits="userSpaceOnUse">
      <stop offset=".11" stop-color="#cbdfff"/>
      <stop offset=".51" stop-color="#9db9ff"/>
      <stop offset=".52" stop-color="#7591e3"/>
    </radialGradient>
  </defs>
  <g id="Layer_1-2" data-name="Layer 1">
    <g>
      <rect class="cls-2" x="0" width="174.96" height="194.01" rx="25.37" ry="25.37"/>
      <path class="cls-1" d="M169.84,29.76v134.4c0,13.14-10.65,23.8-23.8,23.8H29.52c-13.15,0-23.8-10.66-23.8-23.8V29.76c0-.47.01-.93.04-1.39,0-.06.01-.13.02-.19h0c.68-10.49,8.16-19.12,18.07-21.54,1.82-.44,3.72-.68,5.67-.68h116.52c13.15,0,23.8,10.66,23.8,23.8Z"/>
    </g>
  </g>
</svg>