<?xml version="1.0" encoding="UTF-8"?>
<svg id="Layer_2" data-name="Layer 2" xmlns="http://www.w3.org/2000/svg" xmlns:xlink="http://www.w3.org/1999/xlink" viewBox="0 0 208.57 88.53">
  <defs>
    <style>
      .cls-1 {
        fill: #fff;
      }

      .cls-2 {
        fill: none;
        stroke: #fff;
        stroke-miterlimit: 10;
        stroke-width: 2.29px;
      }

      .cls-3 {
        fill: #007a24;
      }

      .cls-4 {
        fill: url(#linear-gradient);
      }

      .cls-5 {
        clip-path: url(#clippath);
      }
    </style>
    <linearGradient id="linear-gradient" x1="69.03" y1="-18.28" x2="140.65" y2="105.77" gradientUnits="userSpaceOnUse">
      <stop offset=".11" stop-color="#2dff15"/>
      <stop offset=".84" stop-color="#00bf2c"/>
    </linearGradient>
    <clipPath id="clippath">
      <rect class="cls-4" x="8.53" y="10.83" width="192.62" height="65.83" rx="13.77" ry="13.77"/>
    </clipPath>
  </defs>
  <g id="Layer_1-2" data-name="Layer 1">
    <g>
      <g>
        <path class="cls-3" d="M193.46,82.65l-175.56,4.72c-7.72.21-14.24-6.51-14.57-15L1.16,16.17C.83,7.68,6.92.95,14.76,1.15l178.46,4.5c7.84.2,14.2,6.4,14.2,13.85v49.3c0,7.45-6.25,13.66-13.97,13.86Z"/>
        <path class="cls-2" d="M193.46,82.65l-175.56,4.72c-7.72.21-14.24-6.51-14.57-15L1.16,16.17C.83,7.68,6.92.95,14.76,1.15l178.46,4.5c7.84.2,14.2,6.4,14.2,13.85v49.3c0,7.45-6.25,13.66-13.97,13.86Z"/>
      </g>
      <g>
        <rect class="cls-4" x="8.53" y="10.83" width="192.62" height="65.83" rx="13.77" ry="13.77"/>
        <g class="cls-5">
          <path class="cls-1" d="M-2.62,43.89c3.87.72,7.32-.08,9.99-3.16,3.14-3.62,2.38-7.83,3.2-12.15,1.6-8.43,10.63-12.63,18.14-14.26,9.54-2.08,19.72-1.97,29.44-2.61,11.04-.73,22.07-1.46,33.11-2.19,7.4-.49,7.46-12.08,0-11.59C70.92-.72,50.03-.6,29.86,2.41,21.54,3.65,13.46,6.51,7.24,12.35c-2.76,2.59-5.02,5.75-6.51,9.23-.76,1.78-1.28,3.54-1.59,5.45-.16.99-.25,1.97-.33,2.97-.15,2.01-.65,2.3,1.65,2.72-7.29-1.35-10.41,9.81-3.08,11.17h0Z"/>
          <path class="cls-1" d="M172.23,87.41c11.03.15,22.72-.3,31.63-7.66,7.79-6.44,10.38-16.58,10.47-26.31.07-7.46-11.52-7.46-11.59,0-.06,6.66-1.39,13.93-7.13,18.1-6.63,4.82-15.61,4.39-23.38,4.29s-7.46,11.48,0,11.59h0Z"/>
        </g>
      </g>
    </g>
  </g>
</svg>