<?xml version="1.0" encoding="UTF-8"?>
<svg id="Layer_2" data-name="Layer 2" xmlns="http://www.w3.org/2000/svg" viewBox="0 0 82.89 65.98">
  <defs>
    <style>
      .cls-1 {
        fill: #fff;
      }

      .cls-2 {
        fill: none;
        stroke: #fff;
        stroke-linecap: round;
        stroke-miterlimit: 10;
        stroke-width: 3.78px;
      }
    </style>
  </defs>
  <g id="Layer_1-2" data-name="Layer 1">
    <g>
      <rect class="cls-1" y="16.54" width="38.3" height="32.53" rx="5.6" ry="5.6"/>
      <path class="cls-1" d="M4.6,35.31l33.85,29.9c1.99,1.76,5.13.35,5.13-2.31V3.09c0-2.66-3.14-4.08-5.13-2.31L4.6,30.68c-1.39,1.23-1.39,3.4,0,4.63Z"/>
      <path class="cls-2" d="M70.34,7.21c6.58,6.54,10.66,15.59,10.66,25.6s-4.04,18.98-10.56,25.5"/>
      <path class="cls-2" d="M62.16,15.39c4.41,4.41,7.13,10.5,7.13,17.23s-2.77,12.9-7.23,17.32"/>
      <path class="cls-2" d="M53.81,23.74c2.33,2.28,3.77,5.46,3.77,8.97s-1.44,6.69-3.77,8.97"/>
    </g>
  </g>
</svg>