<?xml version="1.0" encoding="UTF-8"?>
<svg id="Layer_2" data-name="Layer 2" xmlns="http://www.w3.org/2000/svg" xmlns:xlink="http://www.w3.org/1999/xlink" viewBox="0 0 982.37 492">
  <defs>
    <style>
      .cls-1 {
        fill: url(#linear-gradient-15);
      }

      .cls-2 {
        fill: url(#linear-gradient-13);
      }

      .cls-3 {
        fill: none;
        stroke: #fff;
        stroke-miterlimit: 10;
        stroke-width: 3.2px;
      }

      .cls-4 {
        fill: url(#linear-gradient-2);
      }

      .cls-5 {
        fill: url(#linear-gradient-10);
      }

      .cls-6 {
        fill: url(#linear-gradient-12);
      }

      .cls-7 {
        fill: #fff;
      }

      .cls-8 {
        fill: url(#linear-gradient-4);
      }

      .cls-9 {
        fill: url(#radial-gradient);
      }

      .cls-10 {
        fill: url(#linear-gradient-3);
      }

      .cls-11 {
        clip-path: url(#clippath-1);
      }

      .cls-12 {
        fill: url(#linear-gradient-5);
      }

      .cls-13 {
        fill: url(#linear-gradient-8);
      }

      .cls-14 {
        fill: url(#linear-gradient-14);
      }

      .cls-15 {
        fill: #160075;
      }

      .cls-16 {
        fill: url(#linear-gradient-17);
      }

      .cls-17 {
        fill: url(#linear-gradient-7);
      }

      .cls-18 {
        fill: url(#linear-gradient-9);
      }

      .cls-19 {
        fill: url(#linear-gradient-11);
      }

      .cls-20 {
        fill: url(#linear-gradient-6);
      }

      .cls-21 {
        fill: url(#linear-gradient-16);
      }

      .cls-22 {
        fill: url(#linear-gradient);
      }

      .cls-23 {
        clip-path: url(#clippath);
      }
    </style>
    <symbol id="restart_2" data-name="restart 2" viewBox="0 0 195.86 180">
      <path class="cls-7" d="M195.85,88.72C195.16,39.16,153.88-.81,104.32.01c-25.25.42-47.96,11.25-64.05,28.37L7.01,18.51c-4.22-1.25-8.11,2.75-6.73,6.93l28.03,85.18c1.19,3.62,5.62,4.93,8.59,2.55l69.96-56.1c3.43-2.75,2.36-8.23-1.86-9.48l-32.71-9.71c10.46-6.75,23.07-10.45,36.59-9.81,31.72,1.51,57.45,27.27,58.91,58.99,1.64,35.58-26.72,64.94-61.93,64.94-13.84,0-26.61-4.56-36.93-12.23-.21-.25-.43-.49-.68-.7l-5.68-4.8c-2.39-2.02-5.96-1.72-7.99.67l-10.94,12.93c-2.02,2.39-1.72,5.96.67,7.99l5.68,4.8c.3.26.62.47.96.65,15.19,11.72,34.23,18.69,54.9,18.69,50.13,0,90.69-40.99,89.99-91.28Z"/>
    </symbol>
    <radialGradient id="radial-gradient" cx="578.03" cy="293.98" fx="578.03" fy="293.98" r="699.84" gradientTransform="translate(-9.19 19.42) scale(.87 .77)" gradientUnits="userSpaceOnUse">
      <stop offset="0" stop-color="#3d006a"/>
      <stop offset=".49" stop-color="#11003f"/>
      <stop offset=".98" stop-color="#000"/>
    </radialGradient>
    <linearGradient id="linear-gradient" x1="491.18" y1="0" x2="491.18" y2="492" gradientUnits="userSpaceOnUse">
      <stop offset="0" stop-color="#25007f"/>
      <stop offset="1" stop-color="#1d003f"/>
    </linearGradient>
    <clipPath id="clippath">
      <rect class="cls-15" x="574.11" y="277.52" width="155.68" height="133.28" rx="19.84" ry="19.84"/>
    </clipPath>
    <clipPath id="clippath-1">
      <rect class="cls-15" x="253.56" y="277.24" width="155.68" height="133.28" rx="19.84" ry="19.84"/>
    </clipPath>
    <linearGradient id="linear-gradient-2" x1="111.59" y1="146.4" x2="111.59" y2="238.12" gradientUnits="userSpaceOnUse">
      <stop offset="0" stop-color="#00005b"/>
      <stop offset=".98" stop-color="#130094"/>
    </linearGradient>
    <linearGradient id="linear-gradient-3" x1="221.43" y1="130.83" x2="221.43" y2="218.14" xlink:href="#linear-gradient-2"/>
    <linearGradient id="linear-gradient-4" x1="325.61" y1="112.62" x2="325.61" y2="200.57" xlink:href="#linear-gradient-2"/>
    <linearGradient id="linear-gradient-5" x1="433.93" y1="109.19" x2="433.93" y2="188.26" xlink:href="#linear-gradient-2"/>
    <linearGradient id="linear-gradient-6" x1="571.14" y1="109.73" x2="571.14" y2="190.65" xlink:href="#linear-gradient-2"/>
    <linearGradient id="linear-gradient-7" x1="666.51" y1="115.46" x2="666.51" y2="199.64" xlink:href="#linear-gradient-2"/>
    <linearGradient id="linear-gradient-8" x1="768.74" y1="128.57" x2="768.74" y2="216.78" xlink:href="#linear-gradient-2"/>
    <linearGradient id="linear-gradient-9" x1="873.92" y1="143.88" x2="873.92" y2="231.92" xlink:href="#linear-gradient-2"/>
    <linearGradient id="linear-gradient-10" x1="114.49" y1="139.6" x2="114.49" y2="231.32" gradientUnits="userSpaceOnUse">
      <stop offset="0" stop-color="red"/>
      <stop offset=".98" stop-color="#810000"/>
    </linearGradient>
    <linearGradient id="linear-gradient-11" x1="223.49" y1="124.02" x2="223.49" y2="211.33" xlink:href="#linear-gradient-10"/>
    <linearGradient id="linear-gradient-12" x1="326.87" y1="105.81" x2="326.87" y2="193.77" xlink:href="#linear-gradient-10"/>
    <linearGradient id="linear-gradient-13" x1="434.36" y1="102.38" x2="434.36" y2="181.45" xlink:href="#linear-gradient-10"/>
    <linearGradient id="linear-gradient-14" x1="570.53" y1="102.92" x2="570.53" y2="183.84" xlink:href="#linear-gradient-10"/>
    <linearGradient id="linear-gradient-15" x1="665.17" y1="108.65" x2="665.17" y2="192.83" xlink:href="#linear-gradient-10"/>
    <linearGradient id="linear-gradient-16" x1="766.62" y1="121.76" x2="766.62" y2="209.97" xlink:href="#linear-gradient-10"/>
    <linearGradient id="linear-gradient-17" x1="871" y1="137.08" x2="871" y2="225.11" xlink:href="#linear-gradient-10"/>
  </defs>
  <g id="Layer_2-2" data-name="Layer 2">
    <g>
      <rect class="cls-9" x="0" width="982.37" height="492" rx="47.41" ry="47.41"/>
      <path class="cls-22" d="M934.96,8.17c21.64,0,39.24,17.6,39.24,39.24v397.19c0,21.64-17.6,39.24-39.24,39.24H47.41c-21.64,0-39.24-17.6-39.24-39.24V47.41c0-21.64,17.6-39.24,39.24-39.24h887.55M934.96,0H47.41C21.22,0,0,21.22,0,47.41v397.19c0,26.18,21.22,47.41,47.41,47.41h887.55c26.18,0,47.41-21.22,47.41-47.41V47.41C982.37,21.22,961.14,0,934.96,0h0Z"/>
    </g>
    <g>
      <g>
        <g>
          <path class="cls-15" d="M711.36,418.89h-119.8c-11.75,0-22.1-9.55-22.8-21.34-1.96-35.11-1.96-70.3,0-105.4.7-11.8,11.05-21.35,22.8-21.34h119.8c11.75,0,22.11,9.55,22.8,21.34,1.96,35.11,1.96,70.3,0,105.4-.7,11.8-11.05,21.35-22.8,21.34Z"/>
          <path class="cls-3" d="M711.36,418.89h-119.8c-11.75,0-22.1-9.55-22.8-21.34-1.96-35.11-1.96-70.3,0-105.4.7-11.8,11.05-21.35,22.8-21.34h119.8c11.75,0,22.11,9.55,22.8,21.34,1.96,35.11,1.96,70.3,0,105.4-.7,11.8-11.05,21.35-22.8,21.34Z"/>
        </g>
        <g>
          <rect class="cls-15" x="574.11" y="277.52" width="155.68" height="133.28" rx="19.84" ry="19.84"/>
          <g class="cls-23">
            <g>
              <path class="cls-15" d="M557.33,319.46c11.53-8.97,4.64-23.28,14.78-32.9,8.17-7.75,24.43-9.86,39-11.3,31.38-3.12,62.77-6.24,94.15-9.36"/>
              <path class="cls-7" d="M564.23,326.36c5.13-4.31,8.27-10.25,9.72-16.75.99-4.43.95-9.73,3.18-13.75s7.41-5.89,11.76-7.14c5.96-1.72,12.12-2.63,18.27-3.3,32.66-3.56,65.4-6.52,98.09-9.77,5.25-.52,9.77-4.12,9.77-9.77,0-4.88-4.49-10.29-9.77-9.77-34.26,3.41-68.71,6-102.86,10.33-13.21,1.68-28.66,3.96-38.22,14.24-4.51,4.85-6.78,11.01-7.93,17.42-1,5.59-1.26,10.59-5.83,14.43-4.04,3.4-3.5,10.31,0,13.81,4,4,9.76,3.41,13.81,0h0Z"/>
            </g>
          </g>
        </g>
        <use width="195.86" height="180" transform="translate(596.49 303.89) scale(.47)" xlink:href="#restart_2"/>
      </g>
      <g>
        <g>
          <g>
            <path class="cls-15" d="M390.81,418.89h-119.8c-11.75,0-22.11-9.55-22.8-21.34-1.96-35.11-1.96-70.3,0-105.4.7-11.8,11.05-21.35,22.8-21.34h119.8c11.75,0,22.11,9.55,22.8,21.34,1.96,35.11,1.96,70.3,0,105.4-.7,11.8-11.05,21.35-22.8,21.34Z"/>
            <path class="cls-3" d="M390.81,418.89h-119.8c-11.75,0-22.11-9.55-22.8-21.34-1.96-35.11-1.96-70.3,0-105.4.7-11.8,11.05-21.35,22.8-21.34h119.8c11.75,0,22.11,9.55,22.8,21.34,1.96,35.11,1.96,70.3,0,105.4-.7,11.8-11.05,21.35-22.8,21.34Z"/>
          </g>
          <g>
            <rect class="cls-15" x="253.56" y="277.24" width="155.68" height="133.28" rx="19.84" ry="19.84"/>
            <g class="cls-11">
              <g>
                <path class="cls-15" d="M236.78,319.18c11.53-8.97,4.64-23.28,14.78-32.9,8.17-7.75,24.43-9.86,39-11.3,31.38-3.12,62.77-6.24,94.15-9.36"/>
                <path class="cls-7" d="M243.68,326.08c5.13-4.31,8.27-10.25,9.72-16.75.99-4.43.95-9.73,3.18-13.75s7.41-5.89,11.76-7.14c5.96-1.72,12.12-2.63,18.27-3.3,32.66-3.56,65.4-6.52,98.09-9.77,5.25-.52,9.77-4.12,9.77-9.77,0-4.88-4.49-10.29-9.77-9.77-34.26,3.41-68.71,6-102.86,10.33-13.21,1.68-28.66,3.96-38.22,14.24-4.51,4.85-6.78,11.01-7.93,17.42-1,5.59-1.26,10.59-5.83,14.43-4.04,3.4-3.5,10.31,0,13.81,4,4,9.76,3.41,13.81,0h0Z"/>
              </g>
            </g>
          </g>
        </g>
        <g>
          <path class="cls-7" d="M328.23,296.87l-44.25,47.67c-2.42,2.6-.57,6.84,2.98,6.84h88.49c3.55,0,5.4-4.23,2.98-6.84l-44.25-47.67c-1.61-1.73-4.35-1.73-5.96,0Z"/>
          <path class="cls-7" d="M357.88,330.73h-49.43c-7.24,0-12.59,4.9-11.95,10.95l3.93,37.07c.64,6.05,6.08,10.95,12.14,10.95h41.39c6.06,0,11.48-4.9,12.11-10.95l3.81-37.07c.62-6.05-4.75-10.95-11.99-10.95ZM340.02,380.81c-.24,2.12-2.15,3.84-4.28,3.84h-7.5c-2.13,0-3.85-1.72-3.85-3.84v-17.98c0-2.12,2.05-3.84,4.58-3.84h8.92c2.53,0,4.39,1.72,4.15,3.84l-2.01,17.98Z"/>
        </g>
      </g>
    </g>
    <g>
      <path class="cls-4" d="M58.61,180.34c-.53-1.91-.64-3.78-.33-5.61.31-1.83.93-3.5,1.87-5.01.94-1.5,2.17-2.82,3.7-3.95,1.53-1.13,3.22-1.93,5.05-2.41,23.57-6.18,47.25-11.83,71.01-16.95,1.32,6.02,2.64,12.04,3.95,18.06-21.55,4.65-43.04,9.73-64.44,15.26,3.39,12.92,6.77,25.83,10.16,38.75,18.25-4.71,36.57-9.1,54.95-13.16-.85-3.79-1.7-7.59-2.55-11.38-12.43,2.74-24.83,5.64-37.2,8.68-1.49-5.98-2.99-11.96-4.48-17.94,14.32-3.52,28.68-6.85,43.07-9.97,2.04-.44,4.01-.49,5.9-.15,1.89.35,3.59.98,5.09,1.9,1.5.92,2.77,2.12,3.83,3.58,1.06,1.47,1.77,3.06,2.13,4.78,1.48,7,2.96,14,4.43,20.99.41,1.94.42,3.81.03,5.61-.39,1.81-1.06,3.43-2.02,4.87-.96,1.44-2.19,2.67-3.69,3.71-1.5,1.03-3.13,1.74-4.89,2.12-21.65,4.7-43.22,9.86-64.71,15.48-1.96.51-3.91.65-5.85.4-1.94-.24-3.68-.78-5.24-1.62-1.56-.84-2.92-1.95-4.09-3.34-1.17-1.39-1.99-2.94-2.45-4.64-4.42-16.02-8.83-32.04-13.25-48.06Z"/>
      <path class="cls-10" d="M180.09,152.26c.47-4.12,1.9-7.74,4.3-10.84,2.4-3.1,6.16-5.12,11.26-6.04,8.08-1.45,16.16-2.85,24.26-4.18,5.19-.85,9.55-.23,13.05,1.86,3.5,2.09,6.17,5,8.01,8.72,9.85,19.83,19.44,39.73,28.78,59.72-7.1,1-14.2,2.04-21.3,3.14-2.69-5.82-5.4-11.63-8.13-17.44-11.85,1.87-23.68,3.87-35.49,6.01.38-6.33.77-12.66,1.19-18.99,8.67-1.54,17.36-3.02,26.05-4.42-3.2-6.76-6.43-13.52-9.69-20.27-7.43,1.23-14.85,2.5-22.26,3.83-2.16,20.21-4.12,40.41-5.86,60.61-7.06,1.34-14.12,2.73-21.16,4.17,2.07-21.95,4.39-43.91,6.99-65.88Z"/>
      <path class="cls-8" d="M267.67,137.26c-.23-1.67-.31-3.36-.23-5.08.08-1.71.49-3.3,1.24-4.77.75-1.47,1.92-2.74,3.52-3.8,1.6-1.06,3.76-1.77,6.48-2.12.43-.05.86-.11,1.28-.16,2.72-.35,5.13-.2,7.23.43,2.09.63,4.04,1.54,5.84,2.73,10.8,6.83,21.45,13.77,31.97,20.82,8.87-9.01,17.88-17.94,27.05-26.8,1.52-1.52,3.24-2.81,5.16-3.84,1.92-1.04,4.25-1.66,6.98-1.87.43-.03.86-.06,1.29-.1,2.73-.2,4.99.06,6.77.77,1.78.72,3.18,1.73,4.21,3.01,1.03,1.29,1.76,2.77,2.18,4.43.42,1.66.69,3.34.81,5.02,1.45,21.25,2.89,42.51,4.34,63.76-6.44.43-12.88.9-19.31,1.41-1.46-18.09-2.92-36.18-4.37-54.28-8.02,7.7-15.92,15.46-23.7,23.27,1.07,11.06,2.14,22.12,3.21,33.18-6.39.61-12.78,1.26-19.16,1.94-1.21-11.05-2.41-22.09-3.62-33.14-9.22-6.09-18.54-12.1-27.98-18.03,2.26,18.01,4.52,36.02,6.78,54.03-6.41.79-12.82,1.62-19.23,2.5-2.92-21.11-5.83-42.21-8.75-63.32Z"/>
      <path class="cls-12" d="M389.96,125.91c-.12-1.98.15-3.83.83-5.56.67-1.73,1.62-3.24,2.83-4.52,1.22-1.28,2.68-2.32,4.4-3.11,1.72-.79,3.52-1.24,5.39-1.34,24.62-1.28,49.27-2.01,73.92-2.19.05,6.16.09,12.32.14,18.48-22.4.17-44.79.79-67.17,1.87.16,3.3.32,6.59.49,9.89,19.21-.93,38.42-1.52,57.65-1.77.08,6.16.16,12.32.24,18.48-19,.25-38,.83-56.98,1.75.19,3.88.38,7.76.57,11.65,21.82-1.06,43.66-1.66,65.5-1.83.05,6.16.09,12.32.14,18.48-23.23.17-46.45.85-69.65,2.05-2.01.1-3.93-.16-5.76-.79-1.83-.63-3.41-1.52-4.75-2.65-1.34-1.13-2.44-2.5-3.28-4.1-.85-1.6-1.33-3.28-1.44-5.04-1.02-16.58-2.04-33.16-3.06-49.74Z"/>
      <path class="cls-20" d="M533.67,109.73c6.77.18,13.53.4,20.3.66-.77,19.49-1.54,38.98-2.3,58.48,19.57.76,39.12,1.88,58.66,3.36-.47,6.14-.94,12.28-1.42,18.43-21.09-1.6-42.21-2.77-63.34-3.52-2.01-.07-3.86-.5-5.55-1.29-1.69-.79-3.14-1.8-4.33-3.05-1.2-1.25-2.13-2.7-2.8-4.37-.67-1.67-.98-3.38-.93-5.14.57-21.19,1.14-42.37,1.71-63.56Z"/>
      <path class="cls-17" d="M619.56,128.03c.16-1.97.69-3.77,1.61-5.39.91-1.62,2.06-2.98,3.45-4.08,1.39-1.1,2.98-1.92,4.8-2.47,1.81-.54,3.66-.74,5.53-.57,23.13,2.03,46.23,4.55,69.28,7.56,2.1.27,4.03.9,5.8,1.88,1.76.98,3.22,2.16,4.37,3.54,1.15,1.38,2,2.94,2.54,4.68.54,1.74.69,3.48.44,5.23-2.33,16.45-4.67,32.9-7,49.34-.28,1.96-.91,3.72-1.89,5.29-.98,1.57-2.17,2.86-3.56,3.9-1.39,1.03-2.97,1.78-4.73,2.24-1.76.47-3.53.58-5.31.35-21.97-2.88-43.98-5.29-66.02-7.24-2.01-.18-3.87-.71-5.59-1.59-1.72-.88-3.17-1.98-4.34-3.29-1.17-1.31-2.06-2.82-2.67-4.52-.62-1.7-.85-3.43-.71-5.19,1.33-16.56,2.66-33.11,4-49.67ZM691.6,180.46c1.71-13.24,3.42-26.48,5.13-39.71-19.15-2.44-38.32-4.53-57.53-6.29-1.24,13.29-2.47,26.58-3.71,39.87,18.73,1.71,37.43,3.76,56.1,6.14Z"/>
      <path class="cls-13" d="M721.15,184.5c25.03,3.66,50,7.92,74.88,12.77.76-3.81,1.51-7.63,2.27-11.44-20.38-3.98-40.82-7.56-61.3-10.74-2.03-.32-3.86-.97-5.48-1.95-1.62-.99-2.97-2.17-4.03-3.55-1.07-1.38-1.84-2.94-2.31-4.68-.48-1.74-.59-3.48-.33-5.22.96-6.49,1.93-12.99,2.89-19.48.29-1.96.94-3.72,1.97-5.27,1.02-1.55,2.26-2.84,3.72-3.84,1.46-1.01,3.11-1.72,4.96-2.15,1.85-.42,3.71-.49,5.57-.2,24.89,3.86,49.71,8.29,74.45,13.29-1.24,6.04-2.48,12.07-3.72,18.11-22.51-4.55-45.1-8.62-67.74-12.22-.53,3.26-1.05,6.52-1.58,9.78,20.72,3.29,41.38,6.98,61.99,11.08,2.05.41,3.87,1.15,5.46,2.22,1.59,1.07,2.89,2.33,3.89,3.77,1,1.44,1.68,3.04,2.06,4.81.38,1.76.38,3.51.02,5.23-1.48,7-2.96,14-4.43,20.99-.41,1.94-1.16,3.66-2.24,5.15-1.09,1.5-2.36,2.71-3.82,3.65-1.46.94-3.09,1.58-4.88,1.92-1.79.35-3.57.35-5.33,0-26.45-5.26-53-9.84-79.62-13.73.91-6.09,1.81-12.19,2.71-18.28Z"/>
      <path class="cls-18" d="M861.88,170.41c-12.74-2.97-25.5-5.78-38.29-8.44,1.27-6.03,2.55-12.06,3.82-18.09,32.45,6.75,64.75,14.48,96.85,23.19-1.64,5.94-3.28,11.88-4.91,17.82-12.57-3.41-25.18-6.67-37.81-9.78-4.73,18.93-9.46,37.87-14.19,56.8-6.31-1.55-12.62-3.06-18.94-4.54,4.49-18.99,8.99-37.98,13.48-56.97Z"/>
    </g>
    <g>
      <path class="cls-5" d="M61.91,173.53c-.52-1.91-.63-3.78-.32-5.61.31-1.83.93-3.5,1.85-5.01.93-1.5,2.15-2.82,3.67-3.95,1.52-1.13,3.19-1.93,5.01-2.41,23.39-6.18,46.89-11.83,70.47-16.95,1.31,6.02,2.62,12.04,3.92,18.06-21.39,4.65-42.71,9.73-63.94,15.26,3.36,12.92,6.72,25.83,10.08,38.75,18.12-4.71,36.29-9.1,54.53-13.16-.84-3.79-1.69-7.59-2.53-11.38-12.33,2.74-24.64,5.64-36.92,8.68-1.48-5.98-2.96-11.96-4.44-17.94,14.21-3.52,28.46-6.85,42.74-9.97,2.02-.44,3.98-.49,5.86-.15,1.88.35,3.56.98,5.05,1.9,1.49.92,2.75,2.12,3.8,3.58,1.05,1.47,1.75,3.06,2.11,4.78,1.47,7,2.93,14,4.4,20.99.41,1.94.41,3.81.03,5.61-.39,1.81-1.05,3.43-2.01,4.87-.95,1.44-2.17,2.67-3.67,3.71-1.49,1.03-3.11,1.74-4.85,2.12-21.48,4.7-42.89,9.86-64.21,15.48-1.95.51-3.88.65-5.8.4-1.92-.24-3.65-.78-5.2-1.62-1.55-.84-2.9-1.95-4.05-3.34-1.16-1.39-1.97-2.94-2.44-4.64-4.38-16.02-8.77-32.04-13.15-48.06Z"/>
      <path class="cls-19" d="M182.47,145.45c.46-4.12,1.88-7.74,4.27-10.84,2.38-3.1,6.11-5.12,11.18-6.04,8.02-1.45,16.04-2.85,24.07-4.18,5.15-.85,9.48-.23,12.95,1.86,3.48,2.09,6.12,5,7.95,8.72,9.77,19.83,19.29,39.73,28.56,59.72-7.05,1-14.1,2.04-21.14,3.14-2.67-5.82-5.36-11.63-8.07-17.44-11.76,1.87-23.5,3.87-35.22,6.01.37-6.33.77-12.66,1.18-18.99,8.61-1.54,17.23-3.02,25.85-4.42-3.18-6.76-6.38-13.52-9.61-20.27-7.37,1.23-14.74,2.5-22.09,3.83-2.15,20.21-4.08,40.41-5.82,60.61-7.01,1.34-14.01,2.73-21,4.17,2.05-21.95,4.36-43.91,6.94-65.88Z"/>
      <path class="cls-6" d="M269.38,130.45c-.23-1.67-.31-3.36-.23-5.08.08-1.71.49-3.3,1.23-4.77.74-1.47,1.9-2.74,3.49-3.8,1.58-1.06,3.73-1.77,6.43-2.12.42-.05.85-.11,1.27-.16,2.7-.35,5.1-.2,7.17.43,2.08.63,4.01,1.54,5.79,2.73,10.71,6.83,21.29,13.77,31.73,20.82,8.8-9.01,17.75-17.94,26.85-26.8,1.51-1.52,3.21-2.81,5.12-3.84,1.9-1.04,4.21-1.66,6.93-1.87.43-.03.85-.06,1.28-.1,2.71-.2,4.96.06,6.72.77,1.76.72,3.16,1.73,4.18,3.01,1.02,1.29,1.74,2.77,2.17,4.43.42,1.66.69,3.34.8,5.02,1.44,21.25,2.87,42.51,4.31,63.76-6.39.43-12.78.9-19.16,1.41-1.45-18.09-2.89-36.18-4.34-54.28-7.96,7.7-15.8,15.46-23.52,23.27,1.06,11.06,2.12,22.12,3.18,33.18-6.34.61-12.68,1.26-19.02,1.94-1.2-11.05-2.39-22.09-3.59-33.14-9.15-6.09-18.4-12.1-27.76-18.03,2.24,18.01,4.49,36.02,6.73,54.03-6.36.79-12.72,1.62-19.08,2.5-2.89-21.11-5.79-42.21-8.68-63.32Z"/>
      <path class="cls-2" d="M390.74,119.1c-.12-1.98.15-3.83.82-5.56.67-1.73,1.61-3.24,2.81-4.52,1.21-1.28,2.66-2.32,4.37-3.11,1.71-.79,3.49-1.24,5.35-1.34,24.44-1.28,48.89-2.01,73.35-2.19.05,6.16.09,12.32.14,18.48-22.23.17-44.45.79-66.66,1.87.16,3.3.32,6.59.48,9.89,19.06-.93,38.13-1.52,57.21-1.77.08,6.16.16,12.32.24,18.48-18.86.25-37.71.83-56.55,1.75.19,3.88.38,7.76.57,11.65,21.66-1.06,43.33-1.66,65-1.83.05,6.16.09,12.32.14,18.48-23.05.17-46.1.85-69.12,2.05-2,.1-3.9-.16-5.72-.79-1.82-.63-3.39-1.52-4.72-2.65-1.33-1.13-2.42-2.5-3.26-4.1-.84-1.6-1.32-3.28-1.43-5.04-1.01-16.58-2.03-33.16-3.04-49.74Z"/>
      <path class="cls-14" d="M533.35,102.92c6.72.18,13.43.4,20.14.66-.76,19.49-1.52,38.98-2.29,58.48,19.42.76,38.83,1.88,58.21,3.36-.47,6.14-.94,12.28-1.4,18.43-20.93-1.6-41.89-2.77-62.86-3.52-2-.07-3.83-.5-5.51-1.29-1.68-.79-3.11-1.8-4.3-3.05-1.19-1.25-2.11-2.7-2.78-4.37-.66-1.67-.97-3.38-.92-5.14.57-21.19,1.13-42.37,1.7-63.56Z"/>
      <path class="cls-1" d="M618.58,121.22c.16-1.97.69-3.77,1.59-5.39.91-1.62,2.05-2.98,3.42-4.08,1.37-1.1,2.96-1.92,4.76-2.47,1.8-.54,3.63-.74,5.49-.57,22.96,2.03,45.88,4.55,68.75,7.56,2.08.27,4,.9,5.75,1.88,1.75.98,3.2,2.16,4.34,3.54,1.14,1.38,1.98,2.94,2.52,4.68.54,1.74.68,3.48.44,5.23-2.32,16.45-4.63,32.9-6.95,49.34-.28,1.96-.9,3.72-1.88,5.29-.97,1.57-2.15,2.86-3.53,3.9-1.38,1.03-2.94,1.78-4.69,2.24-1.75.47-3.5.58-5.27.35-21.8-2.88-43.64-5.29-65.51-7.24-1.99-.18-3.84-.71-5.55-1.59-1.71-.88-3.15-1.98-4.3-3.29-1.16-1.31-2.04-2.82-2.65-4.52-.61-1.7-.85-3.43-.71-5.19,1.32-16.56,2.64-33.11,3.96-49.67ZM690.07,173.65c1.7-13.24,3.4-26.48,5.09-39.71-19-2.44-38.03-4.53-57.09-6.29-1.23,13.29-2.45,26.58-3.68,39.87,18.58,1.71,37.14,3.76,55.67,6.14Z"/>
      <path class="cls-21" d="M719.4,177.7c24.84,3.66,49.62,7.92,74.31,12.77.75-3.81,1.5-7.63,2.25-11.44-20.22-3.98-40.51-7.56-60.84-10.74-2.02-.32-3.83-.97-5.44-1.95-1.61-.99-2.94-2.17-4-3.55-1.06-1.38-1.82-2.94-2.3-4.68-.47-1.74-.58-3.48-.33-5.22.96-6.49,1.91-12.99,2.87-19.48.29-1.96.94-3.72,1.95-5.27,1.01-1.55,2.24-2.84,3.69-3.84,1.45-1.01,3.09-1.72,4.93-2.15,1.84-.42,3.68-.49,5.53-.2,24.7,3.86,49.33,8.29,73.88,13.29-1.23,6.04-2.46,12.07-3.69,18.11-22.34-4.55-44.76-8.62-67.23-12.22-.52,3.26-1.04,6.52-1.56,9.78,20.56,3.29,41.07,6.98,61.52,11.08,2.03.41,3.84,1.15,5.42,2.22,1.58,1.07,2.87,2.33,3.86,3.77.99,1.44,1.67,3.04,2.04,4.81.37,1.76.38,3.51.02,5.23-1.47,7-2.93,14-4.4,20.99-.41,1.94-1.15,3.66-2.23,5.15-1.08,1.5-2.34,2.71-3.79,3.65-1.45.94-3.06,1.58-4.84,1.92-1.78.35-3.54.35-5.29,0-26.25-5.26-52.59-9.84-79.02-13.73.9-6.09,1.8-12.19,2.69-18.28Z"/>
      <path class="cls-16" d="M859.05,163.61c-12.64-2.97-25.31-5.78-38-8.44,1.26-6.03,2.53-12.06,3.79-18.09,32.2,6.75,64.25,14.48,96.11,23.19-1.63,5.94-3.25,11.88-4.88,17.82-12.48-3.41-24.99-6.67-37.52-9.78-4.69,18.93-9.39,37.87-14.08,56.8-6.26-1.55-12.52-3.06-18.8-4.54,4.46-18.99,8.92-37.98,13.38-56.97Z"/>
    </g>
  </g>
</svg>