<?xml version="1.0" encoding="UTF-8"?>
<svg id="Layer_2" data-name="Layer 2" xmlns="http://www.w3.org/2000/svg" xmlns:xlink="http://www.w3.org/1999/xlink" viewBox="0 0 217.87 276.24">
  <defs>
    <style>
      .cls-1 {
        filter: url(#drop-shadow-3);
      }

      .cls-1, .cls-2, .cls-3 {
        fill: #ff8106;
      }

      .cls-4 {
        fill: #83858d;
      }

      .cls-5 {
        fill: #fff;
      }

      .cls-6 {
        fill: #ffc02e;
      }

      .cls-7 {
        fill: #c3c8d0;
      }

      .cls-2 {
        filter: url(#drop-shadow-1);
      }

      .cls-8 {
        fill: #cdd1d7;
      }

      .cls-9 {
        fill: #a5a7b5;
      }

      .cls-10 {
        fill: #abb3bd;
      }

      .cls-11 {
        fill: #373d41;
      }

      .cls-12 {
        fill: #858f9d;
      }

      .cls-13 {
        clip-path: url(#clippath-1);
      }

      .cls-14 {
        fill: #a1a7a9;
      }

      .cls-15 {
        fill: #9da9b1;
      }

      .cls-16 {
        fill: #717b79;
      }

      .cls-17 {
        fill: #898b91;
      }

      .cls-18 {
        fill: #8b9b9f;
      }

      .cls-19 {
        fill: #6d7577;
      }

      .cls-20 {
        fill: #7b7d83;
      }

      .cls-21 {
        fill: #878f8d;
      }

      .cls-22 {
        fill: #ccc;
      }

      .cls-23 {
        fill: gray;
      }

      .cls-24 {
        fill: #abb3b3;
      }

      .cls-3 {
        filter: url(#drop-shadow-2);
      }

      .cls-25 {
        fill: #666673;
      }

      .cls-26 {
        fill: url(#linear-gradient);
      }

      .cls-27 {
        fill: #777d87;
      }

      .cls-28 {
        fill: #cdd2d8;
      }

      .cls-29 {
        fill: #97a5ab;
      }

      .cls-30 {
        clip-path: url(#clippath);
      }
    </style>
    <linearGradient id="linear-gradient" x1="95.69" y1="67.12" x2="120.38" y2="67.12" gradientUnits="userSpaceOnUse">
      <stop offset=".26" stop-color="#9da3a3"/>
      <stop offset=".26" stop-color="#cdd2d8"/>
      <stop offset=".73" stop-color="#b3b3b3"/>
      <stop offset=".74" stop-color="gray"/>
    </linearGradient>
    <filter id="drop-shadow-1" x="97.35" y="25.67" width="26.56" height="7.76" filterUnits="userSpaceOnUse">
      <feOffset dx="-.99" dy="2.47"/>
      <feGaussianBlur result="blur" stdDeviation="0"/>
      <feFlood flood-color="#3f512e" flood-opacity=".67"/>
      <feComposite in2="blur" operator="in"/>
      <feComposite in="SourceGraphic"/>
    </filter>
    <filter id="drop-shadow-2" x="63.32" y="9.8" width="37.72" height="38.75" filterUnits="userSpaceOnUse">
      <feOffset dx="-.69" dy="1.71"/>
      <feGaussianBlur result="blur-2" stdDeviation="0"/>
      <feFlood flood-color="#3f512e" flood-opacity=".67"/>
      <feComposite in2="blur-2" operator="in"/>
      <feComposite in="SourceGraphic"/>
    </filter>
    <clipPath id="clippath">
      <circle class="cls-6" cx="82.53" cy="28.32" r="14.99"/>
    </clipPath>
    <filter id="drop-shadow-3" x="116.2" y="9.8" width="37.72" height="38.75" filterUnits="userSpaceOnUse">
      <feOffset dx="-.69" dy="1.71"/>
      <feGaussianBlur result="blur-3" stdDeviation="0"/>
      <feFlood flood-color="#3f512e" flood-opacity=".67"/>
      <feComposite in2="blur-3" operator="in"/>
      <feComposite in="SourceGraphic"/>
    </filter>
    <clipPath id="clippath-1">
      <circle class="cls-6" cx="135.41" cy="28.32" r="14.99"/>
    </clipPath>
  </defs>
  <g id="Layer_1-2" data-name="Layer 1">
    <g>
      <rect class="cls-21" x="33.08" y="97.98" width="7.94" height="14.99"/>
      <rect class="cls-15" x="3.9" y="76.37" width="32.63" height="56.94"/>
      <rect class="cls-10" x="11.12" y="107.56" width="18.19" height="46.47"/>
      <rect class="cls-14" x="89.27" y="194.8" width="37.47" height="48.87"/>
      <polygon class="cls-20" points="128.1 196.78 128.04 197 126.74 202.24 89.29 202.24 87.77 196.82 87.77 196.78 128.1 196.78"/>
      <rect class="cls-26" x="95.69" y="54.77" width="24.69" height="24.69"/>
      <rect class="cls-21" x="175.06" y="97.98" width="7.94" height="14.99"/>
      <rect class="cls-18" x="40.14" y="85.64" width="10.58" height="38.8"/>
      <rect class="cls-18" x="166.24" y="85.64" width="10.58" height="38.8"/>
      <polygon class="cls-29" points="169.97 98.87 169.97 98.91 166.5 124.44 156.67 196.78 61.26 196.78 50.28 124.44 46.4 98.92 46.4 98.9 46.39 98.87 169.97 98.87"/>
      <polygon class="cls-24" points="172.18 79.46 43.88 79.46 46.4 98.86 46.33 98.86 46.41 98.91 108.17 134 169.95 98.9 170 98.86 169.95 98.86 172.18 79.46"/>
      <polygon class="cls-12" points="158.05 56.56 58.88 56.56 51.37 0 164.71 0 158.05 56.56"/>
      <polygon class="cls-10" points="158.71 19.18 57.97 19.18 57.97 28.82 61.77 54.8 155.45 54.8 158.71 29.7 160.08 19.18 158.71 19.18"/>
      <polygon class="cls-28" points="161.75 6.3 160.08 19.18 56.56 19.18 54.68 6.3 161.75 6.3"/>
      <polygon class="cls-8" points="59.29 21.42 59.29 37.97 54.68 21.42 59.29 21.42"/>
      <polygon class="cls-23" points="59.29 19.18 59.29 37.97 56.2 19.18 59.29 19.18"/>
      <rect class="cls-2" x="98.34" y="25.67" width="25.57" height="5.29"/>
      <circle class="cls-3" cx="82.53" cy="28.32" r="18.52"/>
      <g>
        <circle class="cls-6" cx="82.53" cy="28.32" r="14.99"/>
        <g class="cls-30">
          <g>
            <path class="cls-6" d="M77.36,10.24c13.7,8.85,26.48,19.12,38.09,30.58"/>
            <path class="cls-5" d="M76.34,11.99c13.55,8.83,26.13,18.94,37.68,30.26,1.86,1.83,4.73-1.04,2.86-2.86-11.79-11.56-24.66-21.88-38.5-30.89-2.19-1.43-4.22,2.08-2.04,3.5h0Z"/>
          </g>
          <g>
            <path class="cls-6" d="M81.52,11.24c7.6,3.15,14.83,7.21,21.48,12.06"/>
            <path class="cls-5" d="M80.5,12.99c7.61,3.22,14.76,7.23,21.48,12.06,2.12,1.52,4.14-1.99,2.04-3.5-6.71-4.82-13.86-8.84-21.48-12.06-2.37-1-4.44,2.48-2.04,3.5h0Z"/>
          </g>
          <g>
            <path class="cls-6" d="M67.84,8.95c12.42,10.54,25.25,20.59,38.45,30.14"/>
            <path class="cls-5" d="M66.41,10.39c12.57,10.63,25.53,20.79,38.86,30.46,2.11,1.53,4.13-1.98,2.04-3.5-13.05-9.47-25.73-19.41-38.04-29.82-1.98-1.67-4.86,1.18-2.86,2.86h0Z"/>
          </g>
          <g>
            <path class="cls-6" d="M68.69,19.37c17.79,15.02,36.08,29.43,54.84,43.21"/>
            <path class="cls-5" d="M67.97,20.09c17.87,15.06,36.22,29.52,55.04,43.37,1.05.77,2.06-.98,1.02-1.75-18.68-13.75-36.9-28.1-54.63-43.05-.99-.83-2.43.59-1.43,1.43h0Z"/>
          </g>
        </g>
      </g>
      <circle class="cls-1" cx="135.41" cy="28.32" r="18.52"/>
      <g>
        <circle class="cls-6" cx="135.41" cy="28.32" r="14.99"/>
        <g class="cls-13">
          <g>
            <path class="cls-6" d="M129.91,10.04c13.7,8.85,26.48,19.12,38.09,30.58"/>
            <path class="cls-5" d="M128.89,11.79c13.55,8.83,26.13,18.94,37.68,30.26,1.86,1.83,4.73-1.04,2.86-2.86-11.79-11.56-24.66-21.88-38.5-30.89-2.19-1.43-4.22,2.08-2.04,3.5h0Z"/>
          </g>
          <g>
            <path class="cls-6" d="M134.07,11.03c7.6,3.15,14.83,7.21,21.48,12.06"/>
            <path class="cls-5" d="M133.05,12.78c7.61,3.22,14.76,7.23,21.48,12.06,2.12,1.52,4.14-1.99,2.04-3.5-6.71-4.82-13.86-8.84-21.48-12.06-2.37-1-4.44,2.48-2.04,3.5h0Z"/>
          </g>
          <g>
            <path class="cls-6" d="M120.39,8.75c12.42,10.54,25.25,20.59,38.45,30.14"/>
            <path class="cls-5" d="M118.96,10.18c12.57,10.63,25.53,20.79,38.86,30.46,2.11,1.53,4.13-1.98,2.04-3.5-13.05-9.47-25.73-19.41-38.04-29.82-1.98-1.67-4.86,1.18-2.86,2.86h0Z"/>
          </g>
          <g>
            <path class="cls-6" d="M121.24,19.17c17.79,15.02,36.08,29.43,54.84,43.21"/>
            <path class="cls-5" d="M120.52,19.88c17.87,15.06,36.22,29.52,55.04,43.37,1.05.77,2.06-.98,1.02-1.75-18.68-13.75-36.9-28.1-54.63-43.05-.99-.83-2.43.59-1.43,1.43h0Z"/>
          </g>
        </g>
      </g>
      <polygon class="cls-8" points="157.67 21.42 157.67 37.97 161.75 21.42 157.67 21.42"/>
      <polygon class="cls-23" points="157.67 19.17 157.67 37.97 160.4 19.17 157.67 19.17"/>
      <rect class="cls-28" x="54.68" y="3.71" width="107.07" height="17.68"/>
      <polygon class="cls-16" points="117.34 56.56 98.74 56.56 100.99 40.97 115.04 40.97 117.34 56.56"/>
      <polygon class="cls-16" points="117.34 56.56 98.74 56.56 100.99 40.97 115.04 40.97 117.34 56.56"/>
      <rect class="cls-22" x="103.01" y="39.96" width="1.6" height="16.61"/>
      <rect class="cls-22" x="100.24" y="39.96" width="1.6" height="16.61"/>
      <rect class="cls-22" x="105.75" y="39.96" width="1.6" height="16.61"/>
      <rect class="cls-22" x="111.31" y="39.96" width="1.6" height="16.61"/>
      <rect class="cls-22" x="108.54" y="39.96" width="1.6" height="16.61"/>
      <rect class="cls-22" x="114.14" y="39.96" width="1.6" height="16.61"/>
      <polygon class="cls-16" points="119.34 56.56 117.34 56.56 115.04 40.97 100.99 40.97 98.74 56.56 96.79 56.56 99.51 38.39 116.56 38.39 119.34 56.56"/>
      <polygon class="cls-20" points="128.08 246.02 128.02 245.76 126.72 239.46 89.27 239.46 87.75 245.98 87.75 246.02 128.08 246.02"/>
      <polygon class="cls-19" points="158.59 276.24 57.49 276.24 62.54 244.75 153.24 244.75 158.59 276.24"/>
      <rect class="cls-7" y="140.68" width="44.73" height="33.42"/>
      <polygon class="cls-9" points="36.89 174.1 8.21 174.1 5.68 145.42 39.16 145.42 36.89 174.1"/>
      <polygon class="cls-4" points="34.29 174.1 10.83 174.1 8.26 148.72 36.54 148.72 34.29 174.1"/>
      <circle class="cls-25" cx="22.73" cy="160.72" r="9.68"/>
      <circle class="cls-11" cx="22.73" cy="160.72" r="8.38"/>
      <path class="cls-27" d="M22.73,152.28c-4.66,0-8.45,3.78-8.45,8.45s3.78,8.45,8.45,8.45,8.45-3.78,8.45-8.45-3.78-8.45-8.45-8.45ZM22.73,167.69c-3.85,0-6.97-3.12-6.97-6.97s3.12-6.97,6.97-6.97,6.97,3.12,6.97,6.97-3.12,6.97-6.97,6.97Z"/>
      <polygon class="cls-7" points="40.06 180.24 4.54 180.24 0 174.1 44.73 174.1 40.06 180.24"/>
      <polygon class="cls-17" points="39.68 179.48 5.17 179.48 1.9 175.09 42.73 175.09 39.68 179.48"/>
      <rect class="cls-15" x="180.35" y="76.37" width="32.63" height="56.94" transform="translate(393.33 209.68) rotate(-180)"/>
      <rect class="cls-10" x="187.57" y="107.56" width="18.19" height="46.47" transform="translate(393.33 261.58) rotate(-180)"/>
      <rect class="cls-7" x="172.15" y="139.8" width="45.72" height="34.16" transform="translate(390.02 313.77) rotate(-180)"/>
      <polygon class="cls-9" points="180.16 173.96 209.48 173.96 211.8 144.64 177.57 144.64 180.16 173.96"/>
      <polygon class="cls-4" points="182.91 173.96 206.88 173.96 209.18 148.02 180.28 148.02 182.91 173.96"/>
      <circle class="cls-25" cx="194.64" cy="160.29" r="9.9"/>
      <circle class="cls-11" cx="194.64" cy="160.29" r="8.57"/>
      <path class="cls-27" d="M186.01,160.29c0,4.77,3.87,8.63,8.63,8.63s8.63-3.87,8.63-8.63-3.87-8.63-8.63-8.63-8.63,3.87-8.63,8.63ZM187.52,160.29c0-3.93,3.19-7.12,7.12-7.12s7.12,3.19,7.12,7.12c0,3.93-3.19,7.12-7.12,7.12s-7.12-3.19-7.12-7.12Z"/>
      <polygon class="cls-7" points="176.79 180.24 213.1 180.24 217.87 173.96 172.15 173.96 176.79 180.24"/>
      <polygon class="cls-17" points="177.43 179.46 212.69 179.46 215.82 174.98 174.08 174.98 177.43 179.46"/>
      <rect class="cls-23" x="54.68" y="21.39" width="106.55" height=".62"/>
    </g>
  </g>
</svg>